<svg xmlns="http://www.w3.org/2000/svg" id="svg889" width="50" height="50" x="0" y="0" version="1.1">
  <defs id="defs885">
    <style id="style883" type="text/css">
      <![CDATA[
#sun {
	animation: sun-animation 15s infinite linear;
	transform-origin: 50% 50%;
}
@keyframes sun-animation {
	0% {
		transform: scale(0.8) rotate(0deg);
	}
	50% {
		transform: scale(1.0) rotate(180deg);
	}
	100% {
		transform: scale(0.8) rotate(360deg);
	}
}
]]>
    </style>
  </defs>
  <path id="path2" d="m49.751 29.454-5.383-4.718 5.193-4.922a.726.726 0 0 0-.306-1.23l-6.911-1.98 2.554-6.647a.724.724 0 0 0-.118-.722.745.745 0 0 0-.692-.26l-7.103 1.139-.578-7.086a.731.731 0 0 0-.42-.602.748.748 0 0 0-.738.059l-5.923 4.037L25.728.365a.742.742 0 0 0-.64-.365.741.741 0 0 0-.641.365l-4.13 7.068-7.145-4.097a.748.748 0 0 0-.74-.002.73.73 0 0 0-.371.632l-.017 7.109-7.172-.587a.744.744 0 0 0-.669.312.723.723 0 0 0-.06.728l3.07 6.43-6.734 2.507a.726.726 0 0 0-.208 1.25l5.565 4.506L.842 31.34a.725.725 0 0 0-.179.709.736.736 0 0 0 .533.507l6.983 1.714-2.29 6.74a.724.724 0 0 0 .148.716.745.745 0 0 0 .701.232l7.053-1.41.857 7.058c.031.26.2.483.444.585.243.103.523.07.734-.087l5.76-4.262 3.838 5.817a.742.742 0 0 0 .654.34.74.74 0 0 0 .626-.39l3.353-6.094 6.077 3.806c.224.14.505.152.74.03a.73.73 0 0 0 .396-.617l.298-7.103 7.142.864a.745.745 0 0 0 .681-.286.724.724 0 0 0 .09-.726l-2.814-6.543 6.827-2.246a.726.726 0 0 0 .257-1.24z" style="fill:#ffa600;stroke-width:0.09796961"/>
</svg>
