<svg xmlns="http://www.w3.org/2000/svg" id="svg1596" width="50" height="50" x="0" y="0" version="1.1">
  <defs id="defs1590">
    <style id="style1588" type="text/css">
      <![CDATA[
#sun {
	animation: sun 15s linear infinite;
	transform-origin: 50% 50%;
}
@keyframes sun {
	0% {
		transform: scale(0.8) rotate(0deg);
	}
	50% {
		transform: scale(1.0) rotate(180deg);
	}
	100% {
		transform: scale(0.8) rotate(360deg);
	}
}
#cloud {
	animation: cloud 15s linear infinite;
	transform-origin: 50% 50%;
}
@keyframes cloud {
	0% {
		transform: scale(1) translate(0px,0px);
	}
	25% {
		transform: scale(1.3) translate(10px, -5px);
	}
	50% {
		transform: scale(0.9) translate(-2px, 5px);
	}
	75% {
		transform: scale(1.1) translate(5px, -10px);
	100% {
		transform: scale(1) translate(0px, 0px);
	}
}
]]>
    </style>
  </defs>
  <g id="sun" transform="matrix(.9 0 0 .9 5 0)">
    <path id="path2" d="m49.751 29.454-5.383-4.718 5.193-4.922a.726.726 0 0 0-.306-1.23l-6.911-1.98 2.554-6.647a.724.724 0 0 0-.118-.722.745.745 0 0 0-.692-.26l-7.103 1.139-.578-7.086a.731.731 0 0 0-.42-.602.748.748 0 0 0-.738.059l-5.923 4.037L25.728.365a.742.742 0 0 0-.64-.365.741.741 0 0 0-.641.365l-4.13 7.068-7.145-4.097a.748.748 0 0 0-.74-.002.73.73 0 0 0-.371.632l-.017 7.109-7.172-.587a.744.744 0 0 0-.669.312.723.723 0 0 0-.06.728l3.07 6.43-6.734 2.507a.726.726 0 0 0-.208 1.25l5.565 4.506L.842 31.34a.725.725 0 0 0-.179.709.736.736 0 0 0 .533.507l6.983 1.714-2.29 6.74a.724.724 0 0 0 .148.716.745.745 0 0 0 .701.232l7.053-1.41.857 7.058c.031.26.2.483.444.585.243.103.523.07.734-.087l5.76-4.262 3.838 5.817a.742.742 0 0 0 .654.34.74.74 0 0 0 .626-.39l3.353-6.094 6.077 3.806c.224.14.505.152.74.03a.73.73 0 0 0 .396-.617l.298-7.103 7.142.864a.745.745 0 0 0 .681-.286.724.724 0 0 0 .09-.726l-2.814-6.543 6.827-2.246a.726.726 0 0 0 .257-1.24z" style="fill:#ffa600;stroke-width:0.09796961"/>
    <ellipse id="ellipse4" cx="24.838" cy="24.66" rx="15.241" ry="15.132" style="fill:#ffdb2d;stroke-width:0.09796961"/>
  </g>
  <g id="cloud">
    <path id="path14" d="M27.35 39.244a4.792 4.792 0 0 0-2.565-1.443 5.271 5.271 0 0 0-1.102-2.444 5.321 5.321 0 0 0-4.208-2.03l-.14.004-.1-.026-.023.031a5.33 5.33 0 0 0-.777.097c-.21-.4-.47-.78-.774-1.138-.515-.64-1.024-1-1.632-1.375-1.03-.628-2.204-.992-3.31-.992-2.278 0-4.34 1.177-5.516 3.148-.056.094-.108.205-.16.308-.306.593-.636 1.492-.692 2.177-.08.718-.031 1.63.095 2.092-1.034.292-2 1.327-2.405 2.225-.404.899-.47 2.81-.071 4.023.71 2.164 2.6 3.48 4.93 3.48h.06c1.204 0 4.675.023 8.005.018 3.112-.004 6.1.005 7.002.005 3.06 0 4.66-2.4 4.66-4.778.001-1.284-.453-2.48-1.277-3.382m-3.383 6.62c-.908 0-3.934.036-7.07.04-3.31.004-6.741.04-7.937.04H8.9c-1.649 0-2.93-.949-3.429-2.463-.52-1.584-.028-3.341 1.196-4.241.497-.367 1.01-.63 1.523-.737l.281-.06-.135-.254c-.686-1.271-.6-2.919.225-4.3.888-1.489 2.442-2.378 4.158-2.378 1.83 0 4.101 1.288 4.701 3.676l.064.255.238-.113c1.752-.835 3.654-.342 4.729 1.022.608.753.895 1.811.808 2.78l.03.344h.235c1.106 0 2.025.257 2.658.949.557.608.865 1.377.865 2.263 0 1.543-.965 3.177-3.08 3.177" style="fill:#b3b3b3;stroke-width:0.71890676"/>
    <path id="path833" d="M12.441 31.427c-2.485.18-4.804 2.41-4.605 4.993-.01.677.182 1.333.454 1.947-2.24.456-3.765 3.041-2.876 5.189.546 1.448 2.012 2.665 3.627 2.428 5.083.02 10.173.094 15.252-.119 1.724.051 2.988-1.724 2.802-3.35.048-1.529-1.171-2.862-2.668-3.057-.707-.02-1.218-.186-1.078-1.014-.159-2.035-2.036-3.833-4.125-3.577-.58.027-1.191.284-1.718.369-.5-2.274-2.767-3.884-5.065-3.809z" style="opacity:1;fill:#ffffff;fill-opacity:1;stroke:none;stroke-width:20.15117073;stroke-linecap:round;stroke-linejoin:round;stroke-miterlimit:9;stroke-dasharray:none;stroke-opacity:1;paint-order:normal"/>
  </g>
</svg>
