<svg xmlns="http://www.w3.org/2000/svg" id="svg983" width="50" height="50" version="1.1">
  <defs id="defs961">
    <style id="style959" type="text/css">
      <![CDATA[
.drop:nth-of-type(5n) {
	animation: 0.8s linear drops infinite 1s;
}
.drop:nth-of-type(5n+1) {
	animation: 1s linear drops infinite -2s;
}
.drop:nth-of-type(5n+2) {
	animation: 0.6s linear drops infinite 3s;
}
.drop:nth-of-type(5n+3) {
	animation: 0.7s linear drops infinite -5s;
}
.drop:nth-of-type(5n+4) {
	animation: 0.5s linear drops infinite -4s;
}
@keyframes drops {
	0% {
		transform:  translateX(5px) rotate(15deg) translateY(0px);
	}
	100% {
		transform: translateX(5px) rotate(15deg) translateY(45px);
	}
}
#bolt {
	animation: 5s linear bolt infinite;
}
#bolt-left {
	animation: 4s linear bolt infinite -1s;
}
#bolt-right {
	animation: 6s linear bolt infinite -3s;
}
@keyframes bolt {
	0% {
		fill-opacity: 0;
	}
	25% {
		fill-opacity: 1;
	}
	30% {
		fill-opacity: 0;
	}
	50% {
		fill-opacity: 1;
	}
	55% {
		fill-opacity: 0;
	}
	75% {
		fill-opacity: 1;
	}
	80% {
		fill-opacity: 0;
	}
	95% {
		fill-opacity: 1;
	}
	100% {
		fill-opacity: 0;
	}
}
]]>
    </style>
  </defs>
  <path id="path7211" d="M19.592 18.899c.432-.552.88-1.123 1.24-1.735.096-.162.362-.162.456 0 .362.612.81 1.183 1.242 1.735.878 1.12 1.707 2.177 1.707 3.428a3.179 3.179 0 0 1-3.176 3.175 3.179 3.179 0 0 1-3.176-3.175c0-1.251.829-2.309 1.707-3.428z" class="drop" style="fill:#89cbd9;fill-opacity:1;stroke:#3a8bf2;stroke-width:1;stroke-miterlimit:4;stroke-dasharray:none;stroke-opacity:1"/>
  <path id="path7213" d="M30.486 10.53c.433-.551.88-1.122 1.241-1.734.096-.162.361-.162.456 0 .362.612.809 1.183 1.242 1.735.877 1.12 1.706 2.177 1.706 3.427a3.179 3.179 0 0 1-3.176 3.176 3.179 3.179 0 0 1-3.175-3.176c0-1.25.829-2.308 1.706-3.427z" class="drop" style="fill:#89cbd9;fill-opacity:1;stroke:#3a8bf2;stroke-width:1;stroke-miterlimit:4;stroke-dasharray:none;stroke-opacity:1"/>
  <path id="path7217" d="M8.275 24.329c.432-.552.88-1.123 1.24-1.735.096-.162.362-.162.456 0 .362.612.81 1.183 1.242 1.735.878 1.12 1.706 2.177 1.706 3.427a3.179 3.179 0 0 1-3.175 3.176 3.179 3.179 0 0 1-3.176-3.176c0-1.25.829-2.308 1.707-3.427z" class="drop" style="fill:#89cbd9;fill-opacity:1;stroke:#3a8bf2;stroke-width:1;stroke-miterlimit:4;stroke-dasharray:none;stroke-opacity:1"/>
  <path id="path7219" d="M30.286 25.342c.415-.553.844-1.123 1.19-1.735.091-.162.346-.162.437 0 .346.612.775 1.182 1.19 1.735.841 1.119 1.636 2.176 1.636 3.427 0 1.752-1.365 3.176-3.044 3.176s-3.044-1.424-3.044-3.176c0-1.25.794-2.308 1.635-3.427z" class="drop" style="fill:#89cbd9;fill-opacity:1;stroke:#3a8bf2;stroke-width:0.97902906;stroke-miterlimit:4;stroke-dasharray:none;stroke-opacity:1"/>
  <path id="path7221" d="M38.997 9.326c.433-.552.88-1.123 1.241-1.735.095-.162.361-.162.456 0 .361.612.808 1.183 1.241 1.735.878 1.12 1.707 2.177 1.707 3.427a3.179 3.179 0 0 1-3.176 3.176 3.179 3.179 0 0 1-3.176-3.176c0-1.25.83-2.308 1.707-3.427z" class="drop" style="fill:#89cbd9;fill-opacity:1;stroke:#3a8bf2;stroke-width:1;stroke-miterlimit:4;stroke-dasharray:none;stroke-opacity:1"/>
  <path id="path7213-9" d="M33.839 4.501c.433-.552.88-1.122 1.241-1.735.095-.161.361-.161.456 0 .361.613.809 1.183 1.242 1.735.877 1.12 1.706 2.177 1.706 3.428a3.179 3.179 0 0 1-3.176 3.176 3.179 3.179 0 0 1-3.175-3.176c0-1.25.828-2.308 1.706-3.428z" class="drop" style="fill:#89cbd9;fill-opacity:1;stroke:#3a8bf2;stroke-width:1;stroke-miterlimit:4;stroke-dasharray:none;stroke-opacity:1"/>
  <path id="path7219-6" d="M24.015 25.807c.415-.552.844-1.122 1.19-1.735.091-.161.346-.161.437 0 .346.613.775 1.183 1.19 1.735.841 1.12 1.636 2.177 1.636 3.428 0 1.751-1.366 3.176-3.044 3.176-1.679 0-3.044-1.425-3.044-3.176 0-1.25.794-2.308 1.635-3.428z" class="drop" style="fill:#89cbd9;fill-opacity:1;stroke:#3a8bf2;stroke-width:0.97902906;stroke-miterlimit:4;stroke-dasharray:none;stroke-opacity:1"/>
  <path id="path7211-0" d="M12.951 26.305c.433-.552.88-1.122 1.241-1.735.096-.161.361-.161.456 0 .362.613.809 1.183 1.242 1.735.877 1.12 1.706 2.177 1.706 3.428a3.179 3.179 0 0 1-3.176 3.176 3.179 3.179 0 0 1-3.175-3.176c0-1.25.829-2.308 1.706-3.428z" class="drop" style="fill:#89cbd9;fill-opacity:1;stroke:#3a8bf2;stroke-width:1;stroke-miterlimit:4;stroke-dasharray:none;stroke-opacity:1"/>
  <path id="path7211-6" d="M26.621 14.842c.433-.552.88-1.123 1.241-1.735.095-.162.361-.162.456 0 .361.612.809 1.183 1.242 1.735.877 1.119 1.706 2.177 1.706 3.427a3.179 3.179 0 0 1-3.176 3.176 3.179 3.179 0 0 1-3.175-3.176c0-1.25.828-2.308 1.706-3.427z" class="drop" style="fill:#89cbd9;fill-opacity:1;stroke:#3a8bf2;stroke-width:1;stroke-miterlimit:4;stroke-dasharray:none;stroke-opacity:1"/>
  <path id="path7217-2" d="M4.327 25.482c.433-.552.88-1.122 1.241-1.735.096-.161.361-.161.456 0 .362.613.809 1.183 1.242 1.735.877 1.12 1.706 2.177 1.706 3.428a3.179 3.179 0 0 1-3.175 3.176A3.179 3.179 0 0 1 2.62 28.91c0-1.25.829-2.308 1.706-3.428z" class="drop" style="fill:#89cbd9;fill-opacity:1;stroke:#3a8bf2;stroke-width:1;stroke-miterlimit:4;stroke-dasharray:none;stroke-opacity:1"/>
  <path id="bolt" d="m29.602 43.054-2.553 3.52c-2.517 3.469-4.73 5.017-5.138 1.624-.22-1.82.66-3.538 1.288-5.37h-1.928a.143.143 0 0 1-.124-.078.175.175 0 0 1-.004-.158l2.066-4.36h-3.064a.143.143 0 0 1-.124-.078.176.176 0 0 1-.005-.157l3.433-7.397a.144.144 0 0 1 .13-.087h8.23c.052 0 .1.03.126.08a.175.175 0 0 1 0 .161l-2.034 3.86h2.286c.053 0 .102.032.127.083a.175.175 0 0 1-.005.164l-2.93 5.079h2.233c.056 0 .108.036.131.092a.174.174 0 0 1-.02.17l-1.548 2.083" style="fill:#f29f26;stroke-width:0.03345951"/>
  <path id="bolt-left" d="m42.849 44.11-1.56 3.196c-1.54 3.15-2.892 4.557-3.142 1.475-.133-1.653.404-3.213.788-4.878h-1.179c-.03 0-.06-.026-.075-.07a.229.229 0 0 1-.003-.143l1.263-3.96h-1.873c-.03 0-.06-.027-.076-.07a.23.23 0 0 1-.003-.143l2.099-6.718c.015-.049.045-.08.079-.08H44.198c.032 0 .061.029.077.074a.23.23 0 0 1 0 .146l-1.243 3.505h1.397c.032 0 .062.03.078.076a.23.23 0 0 1-.003.148l-1.791 4.613h1.365c.034 0 .065.033.08.084a.225.225 0 0 1-.012.155l-.947 1.89" style="fill:#f29f26;stroke-width:0.02492992"/>
  <path id="bolt-right" d="m14.02 43.51-.878 3.196c-.865 3.15-1.627 4.557-1.767 1.476-.075-1.653.227-3.213.443-4.878h-.663c-.018 0-.034-.027-.043-.07a.402.402 0 0 1-.001-.143l.71-3.961h-1.054c-.017 0-.033-.027-.042-.07a.403.403 0 0 1-.002-.142l1.181-6.718c.009-.049.026-.08.045-.08h2.831c.018 0 .034.029.043.074.01.045.01.1 0 .146l-.7 3.505h.787c.018 0 .035.029.044.075a.4.4 0 0 1-.002.149l-1.008 4.613h.768c.02 0 .037.032.045.083a.39.39 0 0 1-.006.156l-.533 1.89" style="fill:#f29f26;stroke-width:0.01870215"/>
  <ellipse id="ellipse4" cx="34.903" cy="14.796" rx="9.144" ry="9.079" style="fill:#c0c0c0;stroke-width:0.05878176"/>
  <g id="cloud-front-top" transform="matrix(1.38889 0 0 1.45833 -11.111 .139)">
    <path id="path9060" d="m11.849 10.754.378-.167c-.54-1.794-.362-3.773.506-5.595 1.495-3.137 4.62-5.087 8.158-5.087.634 0 1.29.078 1.95.234.805.19 1.592.492 2.34.9.358.195.704.413 1.03.647a9.537 9.537 0 0 1 1.772 1.648c.368.445.687.908.946 1.377l.177.32a7.642 7.642 0 0 1 5 .431 7.248 7.248 0 0 1 2.175 1.486 7.068 7.068 0 0 1 1.992 3.913l.044.282c1.98.296 3.23 1.23 3.936 1.974C43.379 14.304 44 15.892 44 17.589c0 3.126-2.176 6.29-6.333 6.29-1.2 0-4.882.004-8.962.01l-1.924.002c-4.907.008-9.915.014-11.583.014-3.506 0-6.258-2.135-7.011-5.439-.74-3.249.766-6.42 3.662-7.712m22.124 2.119a.45.45 0 0 1 .118-.593 8.453 8.453 0 0 1 2.536-1.318c-.482-2.665-2.834-4.58-5.661-4.58-1.957 0-3.967 1.013-5.247 2.643a.505.505 0 0 1-.627.119.455.455 0 0 1-.195-.586c.732-1.596 1.969-2.788 2.496-3.251-1.336-2.29-3.927-3.818-6.503-3.818-2.888 0-5.443 1.596-6.666 4.165-1.098 2.305-.812 4.826.747 6.58a6.733 6.733 0 0 0 1.994 1.527c.21.105.307.34.232.556a.478.478 0 0 1-.455.316l-.078-.007c-2.55-.405-3.845-1.875-4.271-2.358l-.005-.006c-2.433 1.179-3.059 3.845-2.598 5.862.462 2.029 2.126 4.196 5.407 4.196 1.717 0 6.972-.008 12.014-.015 4.647-.006 9.112-.012 10.456-.012 3.08 0 4.69-2.367 4.69-4.706 0-1.3-.466-2.508-1.316-3.401-.965-1.017-2.363-1.555-4.043-1.555-.829 0-1.649.15-2.435.442a.497.497 0 0 1-.59-.2" class="contour" style="fill:#4d4d4d;stroke-width:0.73292214"/>
    <path id="path9062" d="M33.973 12.873a.45.45 0 0 1 .118-.593 8.453 8.453 0 0 1 2.536-1.318c-.482-2.665-2.834-4.58-5.661-4.58-1.957 0-3.967 1.013-5.247 2.643a.505.505 0 0 1-.627.119.455.455 0 0 1-.195-.586c.732-1.596 1.969-2.788 2.496-3.251-1.336-2.29-3.927-3.818-6.503-3.818-2.888 0-5.443 1.596-6.666 4.165-1.098 2.305-.812 4.826.747 6.58a6.733 6.733 0 0 0 1.994 1.527c.21.105.307.34.232.556a.478.478 0 0 1-.455.316l-.078-.007c-2.55-.405-3.845-1.875-4.271-2.358l-.005-.006c-2.433 1.179-3.059 3.845-2.598 5.862.462 2.029 2.126 4.196 5.407 4.196 1.717 0 6.972-.008 12.014-.015 4.647-.006 9.112-.012 10.456-.012 3.08 0 4.69-2.367 4.69-4.706 0-1.3-.466-2.508-1.316-3.401-.965-1.017-2.363-1.555-4.043-1.555-.829 0-1.649.15-2.435.442a.497.497 0 0 1-.59-.2" class="inside" style="fill:#666666;fill-opacity:1;stroke-width:0.73292214"/>
  </g>
</svg>
