<svg xmlns="http://www.w3.org/2000/svg" id="svg983" width="50" height="50" version="1.1">
  <defs id="defs961">
    <style id="style959" type="text/css">
      <![CDATA[
.drop:nth-of-type(5n) {
	animation: 0.8s linear drops infinite 1s;
}
.drop:nth-of-type(5n+1) {
	animation: 1s linear drops infinite -2s;
}
.drop:nth-of-type(5n+2) {
	animation: 0.6s linear drops infinite 3s;
}
.drop:nth-of-type(5n+3) {
	animation: 0.7s linear drops infinite -5s;
}
.drop:nth-of-type(5n+4) {
	animation: 0.5s linear drops infinite -4s;
}
@keyframes drops {
	0% {
		transform:  translateX(5px) rotate(15deg) translateY(0px);
	}
	100% {
		transform: translateX(5px) rotate(15deg) translateY(45px);
	}
}
#bolt {
	animation: 5s linear bolt infinite;
}
#bolt-left {
	animation: 4s linear bolt infinite -1s;
}
#bolt-right {
	animation: 6s linear bolt infinite -3s;
}
@keyframes bolt {
	0% {
		fill-opacity: 0;
	}
	25% {
		fill-opacity: 1;
	}
	30% {
		fill-opacity: 0;
	}
	50% {
		fill-opacity: 1;
	}
	55% {
		fill-opacity: 0;
	}
	75% {
		fill-opacity: 1;
	}
	80% {
		fill-opacity: 0;
	}
	95% {
		fill-opacity: 1;
	}
	100% {
		fill-opacity: 0;
	}
}
]]>
    </style>
  </defs>
  <path id="path7211" d="M19.592 18.899c.432-.552.88-1.123 1.24-1.735.096-.162.362-.162.456 0 .362.612.81 1.183 1.242 1.735.878 1.12 1.707 2.177 1.707 3.428a3.179 3.179 0 0 1-3.176 3.175 3.179 3.179 0 0 1-3.176-3.175c0-1.251.829-2.309 1.707-3.428z" class="drop" style="fill:#89cbd9;fill-opacity:1;stroke:#3a8bf2;stroke-width:1;stroke-miterlimit:4;stroke-dasharray:none;stroke-opacity:1"/>
  <path id="path7213" d="M30.486 10.53c.433-.551.88-1.122 1.241-1.734.096-.162.361-.162.456 0 .362.612.809 1.183 1.242 1.735.877 1.12 1.706 2.177 1.706 3.427a3.179 3.179 0 0 1-3.176 3.176 3.179 3.179 0 0 1-3.175-3.176c0-1.25.829-2.308 1.706-3.427z" class="drop" style="fill:#89cbd9;fill-opacity:1;stroke:#3a8bf2;stroke-width:1;stroke-miterlimit:4;stroke-dasharray:none;stroke-opacity:1"/>
  <path id="path7217" d="M8.275 24.329c.432-.552.88-1.123 1.24-1.735.096-.162.362-.162.456 0 .362.612.81 1.183 1.242 1.735.878 1.12 1.706 2.177 1.706 3.427a3.179 3.179 0 0 1-3.175 3.176 3.179 3.179 0 0 1-3.176-3.176c0-1.25.829-2.308 1.707-3.427z" class="drop" style="fill:#89cbd9;fill-opacity:1;stroke:#3a8bf2;stroke-width:1;stroke-miterlimit:4;stroke-dasharray:none;stroke-opacity:1"/>
  <path id="path7219" d="M30.286 25.342c.415-.553.844-1.123 1.19-1.735.091-.162.346-.162.437 0 .346.612.775 1.182 1.19 1.735.841 1.119 1.636 2.176 1.636 3.427 0 1.752-1.365 3.176-3.044 3.176s-3.044-1.424-3.044-3.176c0-1.25.794-2.308 1.635-3.427z" class="drop" style="fill:#89cbd9;fill-opacity:1;stroke:#3a8bf2;stroke-width:0.97902906;stroke-miterlimit:4;stroke-dasharray:none;stroke-opacity:1"/>
  <path id="path7221" d="M38.997 9.326c.433-.552.88-1.123 1.241-1.735.095-.162.361-.162.456 0 .361.612.808 1.183 1.241 1.735.878 1.12 1.707 2.177 1.707 3.427a3.179 3.179 0 0 1-3.176 3.176 3.179 3.179 0 0 1-3.176-3.176c0-1.25.83-2.308 1.707-3.427z" class="drop" style="fill:#89cbd9;fill-opacity:1;stroke:#3a8bf2;stroke-width:1;stroke-miterlimit:4;stroke-dasharray:none;stroke-opacity:1"/>
  <path id="path7213-9" d="M33.839 4.501c.433-.552.88-1.122 1.241-1.735.095-.161.361-.161.456 0 .361.613.809 1.183 1.242 1.735.877 1.12 1.706 2.177 1.706 3.428a3.179 3.179 0 0 1-3.176 3.176 3.179 3.179 0 0 1-3.175-3.176c0-1.25.828-2.308 1.706-3.428z" class="drop" style="fill:#89cbd9;fill-opacity:1;stroke:#3a8bf2;stroke-width:1;stroke-miterlimit:4;stroke-dasharray:none;stroke-opacity:1"/>
  <path id="path7219-6" d="M24.015 25.807c.415-.552.844-1.122 1.19-1.735.091-.161.346-.161.437 0 .346.613.775 1.183 1.19 1.735.841 1.12 1.636 2.177 1.636 3.428 0 1.751-1.366 3.176-3.044 3.176-1.679 0-3.044-1.425-3.044-3.176 0-1.25.794-2.308 1.635-3.428z" class="drop" style="fill:#89cbd9;fill-opacity:1;stroke:#3a8bf2;stroke-width:0.97902906;stroke-miterlimit:4;stroke-dasharray:none;stroke-opacity:1"/>
  <path id="path7211-0" d="M12.951 26.305c.433-.552.88-1.122 1.241-1.735.096-.161.361-.161.456 0 .362.613.809 1.183 1.242 1.735.877 1.12 1.706 2.177 1.706 3.428a3.179 3.179 0 0 1-3.176 3.176 3.179 3.179 0 0 1-3.175-3.176c0-1.25.829-2.308 1.706-3.428z" class="drop" style="fill:#89cbd9;fill-opacity:1;stroke:#3a8bf2;stroke-width:1;stroke-miterlimit:4;stroke-dasharray:none;stroke-opacity:1"/>
  <path id="path7211-6" d="M26.621 14.842c.433-.552.88-1.123 1.241-1.735.095-.162.361-.162.456 0 .361.612.809 1.183 1.242 1.735.877 1.119 1.706 2.177 1.706 3.427a3.179 3.179 0 0 1-3.176 3.176 3.179 3.179 0 0 1-3.175-3.176c0-1.25.828-2.308 1.706-3.427z" class="drop" style="fill:#89cbd9;fill-opacity:1;stroke:#3a8bf2;stroke-width:1;stroke-miterlimit:4;stroke-dasharray:none;stroke-opacity:1"/>
  <path id="path7217-2" d="M4.327 25.482c.433-.552.88-1.122 1.241-1.735.096-.161.361-.161.456 0 .362.613.809 1.183 1.242 1.735.877 1.12 1.706 2.177 1.706 3.428a3.179 3.179 0 0 1-3.175 3.176A3.179 3.179 0 0 1 2.62 28.91c0-1.25.829-2.308 1.706-3.428z" class="drop" style="fill:#89cbd9;fill-opacity:1;stroke:#3a8bf2;stroke-width:1;stroke-miterlimit:4;stroke-dasharray:none;stroke-opacity:1"/>
  <path id="bolt" d="m29.602 43.054-2.553 3.52c-2.517 3.469-4.73 5.017-5.138 1.624-.22-1.82.66-3.538 1.288-5.37h-1.928a.143.143 0 0 1-.124-.078.175.175 0 0 1-.004-.158l2.066-4.36h-3.064a.143.143 0 0 1-.124-.078.176.176 0 0 1-.005-.157l3.433-7.397a.144.144 0 0 1 .13-.087h8.23c.052 0 .1.03.126.08a.175.175 0 0 1 0 .161l-2.034 3.86h2.286c.053 0 .102.032.127.083a.175.175 0 0 1-.005.164l-2.93 5.079h2.233c.056 0 .108.036.131.092a.174.174 0 0 1-.02.17l-1.548 2.083" style="fill:#f29f26;stroke-width:0.03345951"/>
  <path id="bolt-left" d="m42.849 44.11-1.56 3.196c-1.54 3.15-2.892 4.557-3.142 1.475-.133-1.653.404-3.213.788-4.878h-1.179c-.03 0-.06-.026-.075-.07a.229.229 0 0 1-.003-.143l1.263-3.96h-1.873c-.03 0-.06-.027-.076-.07a.23.23 0 0 1-.003-.143l2.099-6.718c.015-.049.045-.08.079-.08H44.198c.032 0 .061.029.077.074a.23.23 0 0 1 0 .146l-1.243 3.505h1.397c.032 0 .062.03.078.076a.23.23 0 0 1-.003.148l-1.791 4.613h1.365c.034 0 .065.033.08.084a.225.225 0 0 1-.012.155l-.947 1.89" style="fill:#f29f26;stroke-width:0.02492992"/>
  <path id="bolt-right" d="m14.02 43.51-.878 3.196c-.865 3.15-1.627 4.557-1.767 1.476-.075-1.653.227-3.213.443-4.878h-.663c-.018 0-.034-.027-.043-.07a.402.402 0 0 1-.001-.143l.71-3.961h-1.054c-.017 0-.033-.027-.042-.07a.403.403 0 0 1-.002-.142l1.181-6.718c.009-.049.026-.08.045-.08h2.831c.018 0 .034.029.043.074.01.045.01.1 0 .146l-.7 3.505h.787c.018 0 .035.029.044.075a.4.4 0 0 1-.002.149l-1.008 4.613h.768c.02 0 .037.032.045.083a.39.39 0 0 1-.006.156l-.533 1.89" style="fill:#f29f26;stroke-width:0.01870215"/>
  <g id="cloud-top" transform="matrix(1.0037 0 0 1.0037 12.86 -8.066)">
    <path id="path2327" d="m31.842 23.646-.526-.232c.75-2.493.503-5.241-.703-7.772-2.075-4.358-6.416-7.066-11.33-7.066-.88 0-1.792.109-2.708.325a13.095 13.095 0 0 0-3.251 1.25 13.82 13.82 0 0 0-1.43.899 13.246 13.246 0 0 0-2.46 2.289A12.461 12.461 0 0 0 8.12 15.25l-.246.444a10.613 10.613 0 0 0-6.945.6 10.066 10.066 0 0 0-3.021 2.064c-.448.444-.86.948-1.23 1.499a9.756 9.756 0 0 0-1.536 3.936l-.062.392c-2.75.41-4.486 1.709-5.466 2.74-1.564 1.65-2.427 3.856-2.427 6.213 0 4.342 3.022 8.737 8.796 8.737 1.666 0 6.781.006 12.447.014l2.673.003c6.815.01 13.77.019 16.088.019 4.868 0 8.691-2.966 9.737-7.554 1.028-4.513-1.064-8.917-5.086-10.712M1.113 26.588a.625.625 0 0 0-.164-.823 11.74 11.74 0 0 0-3.52-1.831c.669-3.701 3.935-6.362 7.861-6.362 2.718 0 5.51 1.407 7.288 3.672.198.25.59.326.87.165a.631.631 0 0 0 .272-.814c-1.018-2.217-2.735-3.873-3.468-4.516 1.856-3.181 5.455-5.303 9.033-5.303 4.011 0 7.56 2.217 9.258 5.785 1.525 3.202 1.127 6.704-1.037 9.139a9.352 9.352 0 0 1-2.77 2.122.63.63 0 0 0-.322.773.664.664 0 0 0 .631.438l.11-.01c3.541-.562 5.34-2.604 5.931-3.275a.048.048 0 0 1 .007-.008c3.379 1.637 4.248 5.34 3.609 8.142-.643 2.818-2.954 5.828-7.51 5.828-2.385 0-9.684-.01-16.687-.02-6.454-.008-12.655-.017-14.521-.017-4.278 0-6.516-3.288-6.516-6.536 0-1.806.649-3.484 1.828-4.725 1.341-1.412 3.283-2.16 5.616-2.16 1.151 0 2.29.208 3.383.615a.69.69 0 0 0 .818-.28" class="contour" style="fill:#4d4d4d;stroke-width:1.01798809"/>
    <path id="path2327-1" d="M1.113 26.588a.625.625 0 0 0-.164-.823 11.74 11.74 0 0 0-3.52-1.831c.669-3.701 3.935-6.362 7.861-6.362 2.718 0 5.51 1.407 7.288 3.672.198.25.59.326.87.165a.631.631 0 0 0 .272-.814c-1.018-2.217-2.735-3.873-3.468-4.516 1.856-3.181 5.455-5.303 9.033-5.303 4.011 0 7.56 2.217 9.258 5.785 1.525 3.202 1.127 6.704-1.037 9.139a9.352 9.352 0 0 1-2.77 2.122.63.63 0 0 0-.322.773.664.664 0 0 0 .631.438l.11-.01c3.541-.562 5.34-2.604 5.931-3.275a.048.048 0 0 1 .007-.008c3.379 1.637 4.248 5.34 3.609 8.142-.643 2.818-2.954 5.828-7.51 5.828-2.385 0-9.684-.01-16.687-.02-6.454-.008-12.655-.017-14.521-.017-4.278 0-6.516-3.288-6.516-6.536 0-1.806.649-3.484 1.828-4.725 1.341-1.412 3.283-2.16 5.616-2.16 1.151 0 2.29.208 3.383.615a.69.69 0 0 0 .818-.28" class="inside" style="fill:#666666;fill-opacity:1;stroke-width:1.01999998"/>
  </g>
  <g id="cloud-bottom">
    <path id="path2327-6" d="m35.723 21.302-.42-.174c.6-1.87.402-3.93-.562-5.829C33.08 12.031 29.608 10 25.676 10c-.704 0-1.433.082-2.166.244a10.91 10.91 0 0 0-3.745 1.611c-.738.498-1.4 1.075-1.968 1.717-.41.463-.764.946-1.051 1.434l-.197.333a9.015 9.015 0 0 0-5.556.45 8.094 8.094 0 0 0-2.417 1.548c-.358.333-.688.71-.984 1.124a7.056 7.056 0 0 0-1.228 2.952l-.05.294c-2.2.308-3.589 1.281-4.372 2.055A6.5 6.5 0 0 0 0 28.421c0 3.256 2.417 6.552 7.037 6.552 1.332 0 5.424.005 9.957.01l2.139.003c5.451.007 11.016.014 12.87.014 3.894 0 6.953-2.224 7.79-5.665.822-3.385-.851-6.687-4.07-8.033m-24.582 2.206a.45.45 0 0 0-.131-.617 9.627 9.627 0 0 0-2.817-1.373c.535-2.776 3.148-4.772 6.29-4.772 2.173 0 4.407 1.056 5.83 2.754a.587.587 0 0 0 .696.124c.233-.124.326-.386.217-.61-.814-1.663-2.188-2.905-2.774-3.387 1.485-2.386 4.364-3.977 7.226-3.977 3.21 0 6.048 1.662 7.406 4.338 1.22 2.402.902 5.028-.83 6.854a7.446 7.446 0 0 1-2.215 1.591c-.233.11-.341.355-.257.58a.53.53 0 0 0 .504.329l.088-.007c2.833-.422 4.272-1.954 4.745-2.457a.036.036 0 0 1 .006-.006c2.702 1.228 3.398 4.005 2.886 6.106-.514 2.113-2.362 4.37-6.008 4.37-1.907 0-7.746-.007-13.349-.014-5.163-.006-10.124-.013-11.617-.013-3.422 0-5.212-2.466-5.212-4.902 0-1.354.519-2.613 1.462-3.543 1.073-1.06 2.627-1.62 4.493-1.62a8.19 8.19 0 0 1 2.706.461.572.572 0 0 0 .655-.21" class="contour" style="fill:#4d4d4d;stroke-width:0.78849864;fill-opacity:1"/>
    <path id="path2327-1-7" d="M11.14 23.508a.45.45 0 0 0-.13-.617 9.627 9.627 0 0 0-2.817-1.373c.535-2.776 3.148-4.772 6.29-4.772 2.173 0 4.407 1.056 5.83 2.754a.587.587 0 0 0 .696.124c.233-.124.326-.386.217-.61-.814-1.663-2.188-2.905-2.774-3.387 1.485-2.386 4.364-3.977 7.226-3.977 3.21 0 6.048 1.662 7.406 4.338 1.22 2.402.902 5.028-.83 6.854a7.446 7.446 0 0 1-2.215 1.591c-.233.11-.341.355-.257.58a.53.53 0 0 0 .504.329l.088-.007c2.833-.422 4.272-1.954 4.745-2.457a.036.036 0 0 1 .006-.006c2.702 1.228 3.398 4.005 2.886 6.106-.514 2.113-2.362 4.37-6.008 4.37-1.907 0-7.746-.007-13.349-.014-5.163-.006-10.124-.013-11.617-.013-3.422 0-5.212-2.466-5.212-4.902 0-1.354.519-2.613 1.462-3.543 1.073-1.06 2.627-1.62 4.493-1.62a8.19 8.19 0 0 1 2.706.461.572.572 0 0 0 .655-.21" class="inside" style="fill:#666666;stroke-width:0.78849864;fill-opacity:1"/>
  </g>
</svg>
