<svg xmlns="http://www.w3.org/2000/svg" id="svg983" width="50" height="50" version="1.1">
  <defs id="defs961">
    <style id="style959" type="text/css">
      <![CDATA[
#sun {
	animation: sun 24s linear infinite;
	transform-origin: 35px 15px;
}
@keyframes sun {
	0% {
		transform: rotate(0deg);
	}
	100% {
		transform: rotate(360deg);
	}
}
.drop:nth-of-type(5n) {
	animation: 0.8s linear drops infinite 1s;
}
.drop:nth-of-type(5n+1) {
	animation: 1s linear drops infinite -2s;
}
.drop:nth-of-type(5n+2) {
	animation: 0.6s linear drops infinite 3s;
}
.drop:nth-of-type(5n+3) {
	animation: 0.7s linear drops infinite -5s;
}
.drop:nth-of-type(5n+4) {
	animation: 0.5s linear drops infinite -4s;
}
@keyframes drops {
	0% {
		transform:  translateX(5px) rotate(15deg) translateY(0px);
	}
	100% {
		transform: translateX(5px) rotate(15deg) translateY(45px);
	}
}
#bolt {
	animation: 5s linear bolt infinite;
}
#bolt-left {
	animation: 4s linear bolt infinite -1s;
}
#bolt-right {
	animation: 6s linear bolt infinite -3s;
}
@keyframes bolt {
	0% {
		fill-opacity: 0;
	}
	25% {
		fill-opacity: 1;
	}
	30% {
		fill-opacity: 0;
	}
	50% {
		fill-opacity: 1;
	}
	55% {
		fill-opacity: 0;
	}
	75% {
		fill-opacity: 1;
	}
	80% {
		fill-opacity: 0;
	}
	95% {
		fill-opacity: 1;
	}
	100% {
		fill-opacity: 0;
	}
}
]]>
    </style>
  </defs>
  <path id="path7211" d="M19.592 18.899c.432-.552.88-1.123 1.24-1.735.096-.162.362-.162.456 0 .362.612.81 1.183 1.242 1.735.878 1.12 1.707 2.177 1.707 3.428a3.179 3.179 0 0 1-3.176 3.175 3.179 3.179 0 0 1-3.176-3.175c0-1.251.829-2.309 1.707-3.428z" class="drop" style="fill:#89cbd9;fill-opacity:1;stroke:#3a8bf2;stroke-width:1;stroke-miterlimit:4;stroke-dasharray:none;stroke-opacity:1"/>
  <path id="drop-left-3" d="m12.553 29.677-1.124-.568.974-.503c.18-.093.24-.295.134-.453-.106-.157-.338-.21-.518-.117l-1.342.693-2.025-1.023 2.024-1.022 1.343.693c.06.03.127.045.192.045.13 0 .255-.058.326-.163.106-.157.046-.36-.134-.452l-.975-.503 1.125-.568c.181-.092.243-.294.139-.452-.105-.158-.336-.212-.517-.121l-1.124.568-.01-.99c-.002-.183-.174-.33-.382-.328-.209.002-.376.151-.374.334l.014 1.364-2.025 1.023v-2.046l1.358-.67c.181-.09.245-.292.143-.451-.103-.16-.334-.215-.515-.125l-.985.487v-1.137c0-.182-.17-.33-.378-.33-.21 0-.378.148-.378.33v1.137l-.986-.487c-.181-.09-.412-.034-.514.125-.103.159-.04.36.143.45l1.357.672v2.045L5.494 26.11l.014-1.364c.002-.183-.165-.332-.374-.334h-.003c-.207 0-.376.146-.378.328l-.01.99-1.125-.568c-.18-.091-.412-.037-.516.12-.105.16-.043.361.138.453l1.125.568-.975.503c-.18.093-.24.295-.134.453.07.104.197.162.326.162a.419.419 0 0 0 .192-.045l1.343-.693 2.024 1.023-2.024 1.022-1.343-.693c-.18-.092-.412-.04-.518.117-.106.158-.046.36.134.453l.975.503-1.125.568c-.18.091-.243.294-.138.452a.39.39 0 0 0 .327.165c.064 0 .13-.014.189-.044l1.125-.568.01.99c.002.182.17.328.378.328h.003c.209-.002.376-.151.374-.334l-.014-1.364 2.025-1.023v2.045l-1.357.672c-.182.09-.246.291-.143.45a.39.39 0 0 0 .329.168.42.42 0 0 0 .185-.043l.986-.487v1.137c0 .182.169.33.378.33.208 0 .377-.148.377-.33v-1.137l.986.487c.059.03.122.043.185.043a.39.39 0 0 0 .33-.168c.102-.159.038-.36-.143-.45l-1.358-.672V28.28l2.025 1.023-.015 1.364c-.002.183.166.332.375.334h.003c.207 0 .376-.146.378-.328l.01-.99 1.125.568c.06.03.125.044.189.044a.39.39 0 0 0 .328-.165c.104-.158.042-.36-.139-.452z" class="drop" style="fill:#9ddcd9;fill-opacity:1;stroke:#2979db;stroke-width:0.31021401;stroke-miterlimit:4;stroke-dasharray:none;stroke-opacity:1"/>
  <path id="path7221" d="M38.997 9.326c.433-.552.88-1.123 1.241-1.735.095-.162.361-.162.456 0 .361.612.808 1.183 1.241 1.735.878 1.12 1.707 2.177 1.707 3.427a3.179 3.179 0 0 1-3.176 3.176 3.179 3.179 0 0 1-3.176-3.176c0-1.25.83-2.308 1.707-3.427z" class="drop" style="fill:#89cbd9;fill-opacity:1;stroke:#3a8bf2;stroke-width:1;stroke-miterlimit:4;stroke-dasharray:none;stroke-opacity:1"/>
  <path id="drop-left-2" d="m47.912 28.447-1.124-.569.974-.502c.18-.093.24-.296.134-.453-.106-.158-.338-.21-.518-.117l-1.342.693-2.025-1.023 2.024-1.023 1.343.693c.06.031.127.046.192.046.13 0 .255-.058.326-.163.106-.157.046-.36-.134-.453l-.975-.503 1.125-.568c.18-.091.243-.293.139-.452-.105-.158-.336-.212-.517-.12l-1.124.568-.01-.99c-.003-.183-.174-.33-.382-.328-.209.001-.376.15-.374.333l.014 1.364-2.025 1.023v-2.045l1.358-.671c.181-.09.245-.292.143-.45-.103-.16-.334-.216-.515-.126l-.986.487v-1.136c0-.183-.169-.331-.377-.331-.21 0-.378.148-.378.33v1.137l-.986-.487c-.181-.09-.412-.034-.515.125-.102.16-.038.36.144.45l1.357.672v2.045l-2.025-1.023.014-1.364c.002-.182-.165-.332-.374-.333h-.003c-.207 0-.376.146-.378.327l-.01.99-1.125-.568c-.18-.091-.412-.037-.516.121-.105.159-.043.36.138.452l1.125.568-.975.503c-.18.093-.24.296-.134.453.07.105.197.163.326.163a.419.419 0 0 0 .192-.046l1.343-.693 2.024 1.023-2.024 1.023-1.343-.693c-.18-.093-.412-.04-.518.117-.106.157-.046.36.134.452l.975.503-1.125.569c-.18.09-.243.293-.138.451a.39.39 0 0 0 .327.166c.064 0 .13-.015.189-.045l1.125-.568.01.99c.002.182.17.328.378.328h.003c.209-.002.376-.151.374-.334l-.014-1.364 2.025-1.022v2.045l-1.357.671c-.182.09-.246.292-.144.45a.39.39 0 0 0 .33.169.42.42 0 0 0 .185-.043l.986-.487v1.136c0 .183.169.33.378.33.208 0 .377-.147.377-.33v-1.136l.986.487c.059.029.122.043.185.043a.39.39 0 0 0 .33-.168c.102-.16.038-.361-.143-.451l-1.358-.671v-2.045l2.025 1.022-.015 1.364c-.002.183.166.332.375.334h.003c.207 0 .376-.146.378-.327l.01-.99 1.125.567c.06.03.125.045.189.045a.39.39 0 0 0 .328-.166c.104-.158.042-.36-.139-.451z" class="drop" style="fill:#9ddcd9;fill-opacity:1;stroke:#2979db;stroke-width:0.31021401;stroke-miterlimit:4;stroke-dasharray:none;stroke-opacity:1"/>
  <path id="path7213" d="M30.486 10.53c.433-.551.88-1.122 1.241-1.734.096-.162.361-.162.456 0 .362.612.809 1.183 1.242 1.735.877 1.12 1.706 2.177 1.706 3.427a3.179 3.179 0 0 1-3.176 3.176 3.179 3.179 0 0 1-3.175-3.176c0-1.25.829-2.308 1.706-3.427z" class="drop" style="fill:#89cbd9;fill-opacity:1;stroke:#3a8bf2;stroke-width:1;stroke-miterlimit:4;stroke-dasharray:none;stroke-opacity:1"/>
  <path id="drop-left-0" d="m20.478 14.782-1.124-.569.974-.503c.18-.092.24-.295.134-.452-.106-.158-.338-.21-.518-.117l-1.342.692-2.025-1.022 2.024-1.023 1.343.693c.06.03.127.046.192.046.13 0 .255-.059.326-.163.106-.158.046-.36-.134-.453l-.975-.503 1.125-.568c.181-.091.243-.294.139-.452-.105-.158-.336-.212-.517-.12l-1.124.567-.01-.99c-.002-.182-.174-.33-.382-.327-.208.001-.376.15-.374.333l.014 1.364-2.024 1.023v-2.045l1.357-.671c.181-.09.245-.292.143-.451-.103-.159-.333-.215-.515-.125l-.985.487V8.297c0-.183-.17-.331-.378-.331-.209 0-.378.148-.378.33v1.137l-.985-.487c-.182-.09-.413-.034-.515.125-.103.159-.04.36.143.45l1.357.672v2.045l-2.024-1.023.014-1.364c.002-.182-.166-.332-.375-.333h-.003c-.207 0-.376.146-.378.327l-.01.99-1.125-.568c-.18-.091-.412-.037-.516.121-.104.158-.042.36.138.452l1.125.568-.975.503c-.18.093-.24.296-.134.453.071.105.197.163.326.163a.419.419 0 0 0 .192-.046l1.343-.693 2.024 1.023-2.024 1.023-1.343-.693c-.18-.093-.412-.04-.518.117-.106.157-.046.36.134.452l.975.503-1.125.568c-.18.092-.243.294-.138.452a.39.39 0 0 0 .327.166c.065 0 .13-.015.189-.045l1.125-.568.01.99c.002.182.17.328.378.328h.003c.209-.002.376-.151.375-.334l-.015-1.364 2.025-1.023v2.046l-1.357.67c-.182.09-.246.292-.143.451a.39.39 0 0 0 .329.168.42.42 0 0 0 .186-.042l.985-.488v1.137c0 .183.169.33.378.33.208 0 .378-.147.378-.33v-1.137l.985.488c.059.029.122.042.185.042a.39.39 0 0 0 .33-.168c.102-.159.038-.36-.143-.45l-1.357-.671v-2.046l2.024 1.023-.015 1.364c-.002.183.166.332.375.334h.003c.207 0 .376-.146.378-.328l.01-.99 1.125.568c.06.03.125.045.19.045a.39.39 0 0 0 .327-.166c.104-.158.042-.36-.139-.451z" class="drop" style="fill:#9ddcd9;fill-opacity:1;stroke:#2979db;stroke-width:0.31021401;stroke-miterlimit:4;stroke-dasharray:none;stroke-opacity:1"/>
  <path id="path7213-9" d="M33.839 4.501c.433-.552.88-1.122 1.241-1.735.095-.161.361-.161.456 0 .361.613.809 1.183 1.242 1.735.877 1.12 1.706 2.177 1.706 3.428a3.179 3.179 0 0 1-3.176 3.176 3.179 3.179 0 0 1-3.175-3.176c0-1.25.828-2.308 1.706-3.428z" class="drop" style="fill:#89cbd9;fill-opacity:1;stroke:#3a8bf2;stroke-width:1;stroke-miterlimit:4;stroke-dasharray:none;stroke-opacity:1"/>
  <path id="drop-left-7" d="m40.853 24.88-1.124-.568.974-.503c.18-.092.24-.295.134-.452-.106-.158-.338-.21-.518-.117l-1.342.692-2.024-1.022 2.024-1.023 1.343.693c.06.03.126.046.191.046.13 0 .255-.059.326-.163.106-.158.046-.36-.134-.453l-.975-.503 1.125-.568c.181-.091.243-.294.139-.452-.105-.158-.336-.212-.516-.12l-1.125.567-.01-.99c-.002-.182-.174-.33-.382-.328-.208.002-.376.151-.374.334l.014 1.364-2.024 1.023v-2.045l1.357-.672c.182-.09.246-.291.143-.45-.103-.16-.333-.215-.515-.125l-.985.487v-1.137c0-.182-.17-.33-.378-.33-.209 0-.378.148-.378.33v1.137l-.985-.487c-.182-.09-.413-.034-.515.125-.103.159-.039.36.143.45l1.357.672v2.045l-2.024-1.023.014-1.364c.002-.183-.166-.332-.375-.334h-.003c-.207 0-.376.147-.378.328l-.01.99-1.125-.568c-.18-.091-.412-.037-.516.121-.104.158-.042.36.138.452l1.125.568-.975.503c-.18.093-.24.295-.133.453.07.104.196.163.325.163a.419.419 0 0 0 .192-.046l1.343-.693 2.024 1.023-2.024 1.022-1.343-.692c-.18-.093-.411-.04-.517.116-.106.158-.047.36.133.453l.975.503-1.125.568c-.18.092-.242.294-.138.452a.39.39 0 0 0 .328.165c.064 0 .129-.014.188-.044l1.125-.568.01.99c.002.182.17.328.378.328h.003c.209-.002.377-.151.375-.334l-.014-1.364 2.024-1.023v2.046l-1.357.67c-.182.09-.246.292-.143.451a.39.39 0 0 0 .329.168.42.42 0 0 0 .186-.042l.985-.488v1.137c0 .183.17.33.378.33s.378-.147.378-.33v-1.137l.985.488c.059.029.123.042.186.042a.39.39 0 0 0 .329-.168c.103-.159.039-.36-.143-.45l-1.357-.671v-2.046l2.024 1.023-.015 1.364c-.002.183.166.332.375.334h.003c.207 0 .376-.146.378-.328l.01-.99 1.126.568c.06.03.124.044.188.044a.39.39 0 0 0 .328-.165c.104-.158.042-.36-.139-.452z" class="drop" style="fill:#9ddcd9;fill-opacity:1;stroke:#2979db;stroke-width:0.31021401;stroke-miterlimit:4;stroke-dasharray:none;stroke-opacity:1"/>
  <path id="path7211-0" d="M12.951 26.305c.433-.552.88-1.122 1.241-1.735.096-.161.361-.161.456 0 .362.613.809 1.183 1.242 1.735.877 1.12 1.706 2.177 1.706 3.428a3.179 3.179 0 0 1-3.176 3.176 3.179 3.179 0 0 1-3.175-3.176c0-1.25.829-2.308 1.706-3.428z" class="drop" style="fill:#89cbd9;fill-opacity:1;stroke:#3a8bf2;stroke-width:1;stroke-miterlimit:4;stroke-dasharray:none;stroke-opacity:1"/>
  <path id="drop-left-9" d="m28.345 25.486-1.124-.568.974-.503c.18-.093.24-.296.134-.453-.106-.157-.338-.21-.518-.117l-1.342.693-2.025-1.023 2.024-1.022 1.343.692c.06.032.127.046.192.046.13 0 .255-.058.326-.163.106-.157.046-.36-.134-.452l-.975-.503 1.125-.568c.181-.092.243-.294.139-.452-.105-.158-.336-.213-.517-.121l-1.124.568-.01-.99c-.002-.183-.174-.33-.382-.328-.209.002-.376.151-.374.334l.014 1.364-2.024 1.023v-2.046l1.357-.67c.181-.09.245-.292.143-.451-.103-.16-.334-.216-.515-.126l-.985.488V19c0-.183-.17-.33-.378-.33-.21 0-.378.147-.378.33v1.137l-.986-.488c-.181-.09-.412-.033-.514.126-.103.159-.04.36.143.45l1.357.671v2.046l-2.025-1.023.015-1.364c.002-.183-.166-.332-.375-.334h-.003c-.207 0-.376.146-.378.328l-.01.99-1.125-.568c-.18-.092-.412-.037-.516.12-.105.159-.043.361.138.453l1.125.568-.975.503c-.18.092-.24.295-.134.452.07.105.197.163.326.163a.419.419 0 0 0 .192-.046l1.343-.692 2.024 1.022-2.024 1.023-1.343-.693c-.18-.092-.412-.04-.518.117-.106.157-.046.36.134.453l.975.503-1.125.568c-.18.091-.243.294-.138.452a.39.39 0 0 0 .327.165c.064 0 .13-.014.189-.044l1.125-.568.01.99c.002.181.17.328.378.328h.003c.209-.002.376-.152.374-.334l-.014-1.364 2.025-1.023v2.045l-1.357.671c-.182.09-.246.292-.143.451a.39.39 0 0 0 .329.168.42.42 0 0 0 .185-.043l.986-.487v1.137c0 .182.169.33.378.33.208 0 .378-.148.378-.33v-1.137l.985.487c.059.03.122.043.185.043a.39.39 0 0 0 .33-.168c.102-.159.038-.36-.143-.45l-1.357-.672v-2.045l2.024 1.023-.015 1.364c-.002.182.166.332.375.334h.003c.207 0 .376-.147.378-.328l.01-.99 1.125.568c.06.03.125.044.189.044a.39.39 0 0 0 .328-.165c.104-.158.042-.36-.139-.452z" class="drop" style="fill:#9ddcd9;fill-opacity:1;stroke:#2979db;stroke-width:0.31021401;stroke-miterlimit:4;stroke-dasharray:none;stroke-opacity:1"/>
  <path id="bolt" d="m29.602 43.054-2.553 3.52c-2.517 3.469-4.73 5.017-5.138 1.624-.22-1.82.66-3.538 1.288-5.37h-1.928a.143.143 0 0 1-.124-.078.175.175 0 0 1-.004-.158l2.066-4.36h-3.064a.143.143 0 0 1-.124-.078.176.176 0 0 1-.005-.157l3.433-7.397a.144.144 0 0 1 .13-.087h8.23c.052 0 .1.03.126.08a.175.175 0 0 1 0 .161l-2.034 3.86h2.286c.053 0 .102.032.127.083a.175.175 0 0 1-.005.164l-2.93 5.079h2.233c.056 0 .108.036.131.092a.174.174 0 0 1-.02.17l-1.548 2.083" style="fill:#f29f26;stroke-width:0.03345951"/>
  <path id="bolt-left" d="m42.849 44.11-1.56 3.196c-1.54 3.15-2.892 4.557-3.142 1.475-.133-1.653.404-3.213.788-4.878h-1.179c-.03 0-.06-.026-.075-.07a.229.229 0 0 1-.003-.143l1.263-3.96h-1.873c-.03 0-.06-.027-.076-.07a.23.23 0 0 1-.003-.143l2.099-6.718c.015-.049.045-.08.079-.08H44.198c.032 0 .061.029.077.074a.23.23 0 0 1 0 .146l-1.243 3.505h1.397c.032 0 .062.03.078.076a.23.23 0 0 1-.003.148l-1.791 4.613h1.365c.034 0 .065.033.08.084a.225.225 0 0 1-.012.155l-.947 1.89" style="fill:#f29f26;stroke-width:0.02492992"/>
  <path id="bolt-right" d="m14.02 43.51-.878 3.196c-.865 3.15-1.627 4.557-1.767 1.476-.075-1.653.227-3.213.443-4.878h-.663c-.018 0-.034-.027-.043-.07a.402.402 0 0 1-.001-.143l.71-3.961h-1.054c-.017 0-.033-.027-.042-.07a.403.403 0 0 1-.002-.142l1.181-6.718c.009-.049.026-.08.045-.08h2.831c.018 0 .034.029.043.074.01.045.01.1 0 .146l-.7 3.505h.787c.018 0 .035.029.044.075a.4.4 0 0 1-.002.149l-1.008 4.613h.768c.02 0 .037.032.045.083a.39.39 0 0 1-.006.156l-.533 1.89" style="fill:#f29f26;stroke-width:0.01870215"/>
  <g id="sun">
    <path id="path2" d="m49.85 17.672-3.229-2.83 3.115-2.953a.435.435 0 0 0-.183-.738l-4.147-1.19 1.533-3.987a.435.435 0 0 0-.071-.433.447.447 0 0 0-.415-.155l-4.262.682-.347-4.251a.439.439 0 0 0-.252-.361.449.449 0 0 0-.442.035l-3.554 2.422L35.436.22a.445.445 0 0 0-.768 0L32.19 4.46l-4.287-2.458a.449.449 0 0 0-.444 0 .438.438 0 0 0-.222.379l-.01 4.265-4.304-.352a.446.446 0 0 0-.401.187.434.434 0 0 0-.037.437l1.843 3.857-4.04 1.505a.435.435 0 0 0-.125.75l3.338 2.704-2.996 3.07a.435.435 0 0 0 .212.73l4.19 1.03-1.373 4.043a.435.435 0 0 0 .088.43c.105.117.265.17.42.14l4.233-.847.514 4.235a.44.44 0 0 0 .266.35.448.448 0 0 0 .44-.051l3.456-2.558 2.303 3.49a.445.445 0 0 0 .769-.03l2.01-3.656 3.648 2.284c.134.084.302.09.443.018a.438.438 0 0 0 .238-.37l.179-4.262 4.285.518a.447.447 0 0 0 .409-.172.434.434 0 0 0 .054-.435l-1.69-3.926 4.097-1.348a.435.435 0 0 0 .154-.744z" style="fill:#ffa600;stroke-width:0.05878176"/>
    <ellipse id="ellipse4" cx="34.903" cy="14.796" rx="9.144" ry="9.079" style="fill:#ffdb2d;stroke-width:0.05878176"/>
  </g>
  <g id="cloud-front-top" transform="matrix(1.38889 0 0 1.45833 -11.111 .139)">
    <path id="path9060" d="m11.849 10.754.378-.167c-.54-1.794-.362-3.773.506-5.595 1.495-3.137 4.62-5.087 8.158-5.087.634 0 1.29.078 1.95.234.805.19 1.592.492 2.34.9.358.195.704.413 1.03.647a9.537 9.537 0 0 1 1.772 1.648c.368.445.687.908.946 1.377l.177.32a7.642 7.642 0 0 1 5 .431 7.248 7.248 0 0 1 2.175 1.486 7.068 7.068 0 0 1 1.992 3.913l.044.282c1.98.296 3.23 1.23 3.936 1.974C43.379 14.304 44 15.892 44 17.589c0 3.126-2.176 6.29-6.333 6.29-1.2 0-4.882.004-8.962.01l-1.924.002c-4.907.008-9.915.014-11.583.014-3.506 0-6.258-2.135-7.011-5.439-.74-3.249.766-6.42 3.662-7.712m22.124 2.119a.45.45 0 0 1 .118-.593 8.453 8.453 0 0 1 2.536-1.318c-.482-2.665-2.834-4.58-5.661-4.58-1.957 0-3.967 1.013-5.247 2.643a.505.505 0 0 1-.627.119.455.455 0 0 1-.195-.586c.732-1.596 1.969-2.788 2.496-3.251-1.336-2.29-3.927-3.818-6.503-3.818-2.888 0-5.443 1.596-6.666 4.165-1.098 2.305-.812 4.826.747 6.58a6.733 6.733 0 0 0 1.994 1.527c.21.105.307.34.232.556a.478.478 0 0 1-.455.316l-.078-.007c-2.55-.405-3.845-1.875-4.271-2.358l-.005-.006c-2.433 1.179-3.059 3.845-2.598 5.862.462 2.029 2.126 4.196 5.407 4.196 1.717 0 6.972-.008 12.014-.015 4.647-.006 9.112-.012 10.456-.012 3.08 0 4.69-2.367 4.69-4.706 0-1.3-.466-2.508-1.316-3.401-.965-1.017-2.363-1.555-4.043-1.555-.829 0-1.649.15-2.435.442a.497.497 0 0 1-.59-.2" class="contour" style="fill:#4d4d4d;stroke-width:0.73292214"/>
    <path id="path9062" d="M33.973 12.873a.45.45 0 0 1 .118-.593 8.453 8.453 0 0 1 2.536-1.318c-.482-2.665-2.834-4.58-5.661-4.58-1.957 0-3.967 1.013-5.247 2.643a.505.505 0 0 1-.627.119.455.455 0 0 1-.195-.586c.732-1.596 1.969-2.788 2.496-3.251-1.336-2.29-3.927-3.818-6.503-3.818-2.888 0-5.443 1.596-6.666 4.165-1.098 2.305-.812 4.826.747 6.58a6.733 6.733 0 0 0 1.994 1.527c.21.105.307.34.232.556a.478.478 0 0 1-.455.316l-.078-.007c-2.55-.405-3.845-1.875-4.271-2.358l-.005-.006c-2.433 1.179-3.059 3.845-2.598 5.862.462 2.029 2.126 4.196 5.407 4.196 1.717 0 6.972-.008 12.014-.015 4.647-.006 9.112-.012 10.456-.012 3.08 0 4.69-2.367 4.69-4.706 0-1.3-.466-2.508-1.316-3.401-.965-1.017-2.363-1.555-4.043-1.555-.829 0-1.649.15-2.435.442a.497.497 0 0 1-.59-.2" class="inside" style="fill:#666666;fill-opacity:1;stroke-width:0.73292214"/>
  </g>
</svg>
