<svg xmlns="http://www.w3.org/2000/svg" id="svg983" width="50" height="50" version="1.1">
  <defs id="defs961">
    <style id="style959" type="text/css">
      <![CDATA[
.drop:nth-of-type(3n) {
	animation: 0.8s linear drops infinite 1s;
}
.drop:nth-of-type(3n+1) {
	animation: 0.5s linear drops infinite -4s;
}
.drop:nth-of-type(3n+2) {
	animation: 0.6s linear drops infinite 3s;
}
@keyframes drops {
	0% {
		transform:  translateX(5px) rotate(15deg) translateY(0px);
	}
	100% {
		transform: translateX(5px) rotate(15deg) translateY(45px);
	}
}
#car-left {
	animation: 5s linear car infinite -3s;
}
#car-right {
	animation: 5s linear car infinite;
}
@keyframes car {
	0% {
		fill-opacity: 0;
	}
	100% {
		fill-opacity: 1;
	}
}
]]>
    </style>
  </defs>
  <path id="path7211" d="M19.592 18.899c.432-.552.88-1.123 1.24-1.735.096-.162.362-.162.456 0 .362.612.81 1.183 1.242 1.735.878 1.12 1.707 2.177 1.707 3.428a3.179 3.179 0 0 1-3.176 3.175 3.179 3.179 0 0 1-3.176-3.175c0-1.251.829-2.309 1.707-3.428z" class="drop" style="fill:#89cbd9;fill-opacity:1;stroke:#3a8bf2;stroke-width:1;stroke-miterlimit:4;stroke-dasharray:none;stroke-opacity:1"/>
  <path id="path7213" d="M30.486 10.53c.433-.551.88-1.122 1.241-1.734.096-.162.361-.162.456 0 .362.612.809 1.183 1.242 1.735.877 1.12 1.706 2.177 1.706 3.427a3.179 3.179 0 0 1-3.176 3.176 3.179 3.179 0 0 1-3.175-3.176c0-1.25.829-2.308 1.706-3.427z" class="drop" style="fill:#89cbd9;fill-opacity:1;stroke:#3a8bf2;stroke-width:1;stroke-miterlimit:4;stroke-dasharray:none;stroke-opacity:1"/>
  <path id="path7217" d="M8.275 24.329c.432-.552.88-1.123 1.24-1.735.096-.162.362-.162.456 0 .362.612.81 1.183 1.242 1.735.878 1.12 1.706 2.177 1.706 3.427a3.179 3.179 0 0 1-3.175 3.176 3.179 3.179 0 0 1-3.176-3.176c0-1.25.829-2.308 1.707-3.427z" class="drop" style="fill:#89cbd9;fill-opacity:1;stroke:#3a8bf2;stroke-width:1;stroke-miterlimit:4;stroke-dasharray:none;stroke-opacity:1"/>
  <path id="path7221" d="M38.997 9.326c.433-.552.88-1.123 1.241-1.735.095-.162.361-.162.456 0 .361.612.808 1.183 1.241 1.735.878 1.12 1.707 2.177 1.707 3.427a3.179 3.179 0 0 1-3.176 3.176 3.179 3.179 0 0 1-3.176-3.176c0-1.25.83-2.308 1.707-3.427z" class="drop" style="fill:#89cbd9;fill-opacity:1;stroke:#3a8bf2;stroke-width:1;stroke-miterlimit:4;stroke-dasharray:none;stroke-opacity:1"/>
  <path id="path7211-0" d="M12.951 26.305c.433-.552.88-1.122 1.241-1.735.096-.161.361-.161.456 0 .362.613.809 1.183 1.242 1.735.877 1.12 1.706 2.177 1.706 3.428a3.179 3.179 0 0 1-3.176 3.176 3.179 3.179 0 0 1-3.175-3.176c0-1.25.829-2.308 1.706-3.428z" class="drop" style="fill:#89cbd9;fill-opacity:1;stroke:#3a8bf2;stroke-width:1;stroke-miterlimit:4;stroke-dasharray:none;stroke-opacity:1"/>
  <path id="path7211-6" d="M26.621 14.842c.433-.552.88-1.123 1.241-1.735.095-.162.361-.162.456 0 .361.612.809 1.183 1.242 1.735.877 1.119 1.706 2.177 1.706 3.427a3.179 3.179 0 0 1-3.176 3.176 3.179 3.179 0 0 1-3.175-3.176c0-1.25.828-2.308 1.706-3.427z" class="drop" style="fill:#89cbd9;fill-opacity:1;stroke:#3a8bf2;stroke-width:1;stroke-miterlimit:4;stroke-dasharray:none;stroke-opacity:1"/>
  <g id="cloud-top" transform="matrix(1.0037 0 0 1.0037 12.86 -8.066)">
    <path id="path2327" d="m31.842 23.646-.526-.232c.75-2.493.503-5.241-.703-7.772-2.075-4.358-6.416-7.066-11.33-7.066-.88 0-1.792.109-2.708.325a13.095 13.095 0 0 0-3.251 1.25 13.82 13.82 0 0 0-1.43.899 13.246 13.246 0 0 0-2.46 2.289A12.461 12.461 0 0 0 8.12 15.25l-.246.444a10.613 10.613 0 0 0-6.945.6 10.066 10.066 0 0 0-3.021 2.064c-.448.444-.86.948-1.23 1.499a9.756 9.756 0 0 0-1.536 3.936l-.062.392c-2.75.41-4.486 1.709-5.466 2.74-1.564 1.65-2.427 3.856-2.427 6.213 0 4.342 3.022 8.737 8.796 8.737 1.666 0 6.781.006 12.447.014l2.673.003c6.815.01 13.77.019 16.088.019 4.868 0 8.691-2.966 9.737-7.554 1.028-4.513-1.064-8.917-5.086-10.712M1.113 26.588a.625.625 0 0 0-.164-.823 11.74 11.74 0 0 0-3.52-1.831c.669-3.701 3.935-6.362 7.861-6.362 2.718 0 5.51 1.407 7.288 3.672.198.25.59.326.87.165a.631.631 0 0 0 .272-.814c-1.018-2.217-2.735-3.873-3.468-4.516 1.856-3.181 5.455-5.303 9.033-5.303 4.011 0 7.56 2.217 9.258 5.785 1.525 3.202 1.127 6.704-1.037 9.139a9.352 9.352 0 0 1-2.77 2.122.63.63 0 0 0-.322.773.664.664 0 0 0 .631.438l.11-.01c3.541-.562 5.34-2.604 5.931-3.275a.048.048 0 0 1 .007-.008c3.379 1.637 4.248 5.34 3.609 8.142-.643 2.818-2.954 5.828-7.51 5.828-2.385 0-9.684-.01-16.687-.02-6.454-.008-12.655-.017-14.521-.017-4.278 0-6.516-3.288-6.516-6.536 0-1.806.649-3.484 1.828-4.725 1.341-1.412 3.283-2.16 5.616-2.16 1.151 0 2.29.208 3.383.615a.69.69 0 0 0 .818-.28" class="contour" style="fill:#808080;stroke-width:1.01798809"/>
    <path id="path2327-1" d="M1.113 26.588a.625.625 0 0 0-.164-.823 11.74 11.74 0 0 0-3.52-1.831c.669-3.701 3.935-6.362 7.861-6.362 2.718 0 5.51 1.407 7.288 3.672.198.25.59.326.87.165a.631.631 0 0 0 .272-.814c-1.018-2.217-2.735-3.873-3.468-4.516 1.856-3.181 5.455-5.303 9.033-5.303 4.011 0 7.56 2.217 9.258 5.785 1.525 3.202 1.127 6.704-1.037 9.139a9.352 9.352 0 0 1-2.77 2.122.63.63 0 0 0-.322.773.664.664 0 0 0 .631.438l.11-.01c3.541-.562 5.34-2.604 5.931-3.275a.048.048 0 0 1 .007-.008c3.379 1.637 4.248 5.34 3.609 8.142-.643 2.818-2.954 5.828-7.51 5.828-2.385 0-9.684-.01-16.687-.02-6.454-.008-12.655-.017-14.521-.017-4.278 0-6.516-3.288-6.516-6.536 0-1.806.649-3.484 1.828-4.725 1.341-1.412 3.283-2.16 5.616-2.16 1.151 0 2.29.208 3.383.615a.69.69 0 0 0 .818-.28" class="inside" style="fill:#b3b3b3;fill-opacity:1;stroke-width:1.01999998"/>
  </g>
  <g id="cloud-bottom">
    <path id="path2327-6" d="m35.723 21.302-.42-.174c.6-1.87.402-3.93-.562-5.829C33.08 12.031 29.608 10 25.676 10c-.704 0-1.433.082-2.166.244a10.91 10.91 0 0 0-3.745 1.611c-.738.498-1.4 1.075-1.968 1.717-.41.463-.764.946-1.051 1.434l-.197.333a9.015 9.015 0 0 0-5.556.45 8.094 8.094 0 0 0-2.417 1.548c-.358.333-.688.71-.984 1.124a7.056 7.056 0 0 0-1.228 2.952l-.05.294c-2.2.308-3.589 1.281-4.372 2.055A6.5 6.5 0 0 0 0 28.421c0 3.256 2.417 6.552 7.037 6.552 1.332 0 5.424.005 9.957.01l2.139.003c5.451.007 11.016.014 12.87.014 3.894 0 6.953-2.224 7.79-5.665.822-3.385-.851-6.687-4.07-8.033m-24.582 2.206a.45.45 0 0 0-.131-.617 9.627 9.627 0 0 0-2.817-1.373c.535-2.776 3.148-4.772 6.29-4.772 2.173 0 4.407 1.056 5.83 2.754a.587.587 0 0 0 .696.124c.233-.124.326-.386.217-.61-.814-1.663-2.188-2.905-2.774-3.387 1.485-2.386 4.364-3.977 7.226-3.977 3.21 0 6.048 1.662 7.406 4.338 1.22 2.402.902 5.028-.83 6.854a7.446 7.446 0 0 1-2.215 1.591c-.233.11-.341.355-.257.58a.53.53 0 0 0 .504.329l.088-.007c2.833-.422 4.272-1.954 4.745-2.457a.036.036 0 0 1 .006-.006c2.702 1.228 3.398 4.005 2.886 6.106-.514 2.113-2.362 4.37-6.008 4.37-1.907 0-7.746-.007-13.349-.014-5.163-.006-10.124-.013-11.617-.013-3.422 0-5.212-2.466-5.212-4.902 0-1.354.519-2.613 1.462-3.543 1.073-1.06 2.627-1.62 4.493-1.62a8.19 8.19 0 0 1 2.706.461.572.572 0 0 0 .655-.21" class="contour" style="fill:#808080;stroke-width:0.78849864;fill-opacity:1"/>
    <path id="path2327-1-7" d="M11.14 23.508a.45.45 0 0 0-.13-.617 9.627 9.627 0 0 0-2.817-1.373c.535-2.776 3.148-4.772 6.29-4.772 2.173 0 4.407 1.056 5.83 2.754a.587.587 0 0 0 .696.124c.233-.124.326-.386.217-.61-.814-1.663-2.188-2.905-2.774-3.387 1.485-2.386 4.364-3.977 7.226-3.977 3.21 0 6.048 1.662 7.406 4.338 1.22 2.402.902 5.028-.83 6.854a7.446 7.446 0 0 1-2.215 1.591c-.233.11-.341.355-.257.58a.53.53 0 0 0 .504.329l.088-.007c2.833-.422 4.272-1.954 4.745-2.457a.036.036 0 0 1 .006-.006c2.702 1.228 3.398 4.005 2.886 6.106-.514 2.113-2.362 4.37-6.008 4.37-1.907 0-7.746-.007-13.349-.014-5.163-.006-10.124-.013-11.617-.013-3.422 0-5.212-2.466-5.212-4.902 0-1.354.519-2.613 1.462-3.543 1.073-1.06 2.627-1.62 4.493-1.62a8.19 8.19 0 0 1 2.706.461.572.572 0 0 0 .655-.21" class="inside" style="fill:#b3b3b3;stroke-width:0.78849864;fill-opacity:1"/>
  </g>
  <g id="car-right">
    <path id="path5431" d="m41.125 42.416.402-1.333-5.437-1.626c-.098.221-.15.451-.223.674l-.225.69c-.283-.052-.54-.173-.824-.251l.377-1.368-.278-.107v-.117c.001-.348.004-.697.004-1.045 0-.345.034-.685.14-1.014.031-.096.07-.189.11-.281a.733.733 0 0 1 .373-.397.556.556 0 0 0 .17-.144c.622-.707 1.242-1.416 1.861-2.124.017-.02.03-.042.044-.064l5.609 1.683c.024.193.049.377.07.562.09.76.177 1.522.266 2.283.01.09.032.174.1.246.038.04.06.103.071.16.046.243.017.485-.062.716a5.998 5.998 0 0 1-.255.629c-.18.38-.555.926-.837 1.246-.076-.02-.157-.043-.256-.071-.15.434-.267.875-.41 1.306-.11-.002-.68-.184-.79-.253m-3.369-8.027c-.043.046-.078.082-.11.12l-.563.65c-.305.356-.61.71-.913 1.067-.038.043-.069.092-.11.148 1.251.194 2.472.423 3.668.768 1.196.344 2.346.809 3.502 1.344l-.306-2.542-5.168-1.555" style="fill:#010202;stroke-width:0.18973941"/>
    <path id="tireprint-right" d="m42.171 43.05-.4.237-1.161.67c-.018.011-.036.02-.052.031-.202.143-.199.327.01.456.052.032.107.057.162.08l3.343 1.41a.76.76 0 0 1 .5.711c.011.264-.053.495-.255.697-.558.558-1.098 1.136-1.645 1.706-.03.032-.063.063-.093.093h-1.524c.026-.044.036-.072.055-.09.302-.296.606-.59.909-.884.454-.44.906-.886 1.365-1.322.228-.217.165-.383-.102-.505-.38-.172-.764-.332-1.146-.497-.775-.334-1.548-.67-2.323-1.001a.391.391 0 0 1-.247-.283c-.006-.025-.016-.049-.02-.073-.046-.287-.035-.426.256-.592.476-.272.95-.544 1.427-.814a.346.346 0 0 1 .154-.05c.236-.004.472-.001.708 0 .014 0 .028.007.079.02" style="fill:#010202;stroke-width:0.18973941"/>
    <path id="tireprint-left" d="M35.108 49.115H33.7c.038-.042.056-.068.08-.088l2.118-1.724c.214-.175.425-.352.64-.527a.295.295 0 0 0 .112-.28.197.197 0 0 0-.122-.174c-.342-.158-.681-.322-1.021-.484-.653-.31-1.301-.632-1.961-.925-.334-.148-.489-.675-.21-.988.067-.074.142-.146.226-.198.359-.222.723-.436 1.086-.651a.301.301 0 0 1 .14-.045c.225-.005.451-.002.677 0 .014 0 .028.007.06.016-.032.028-.052.052-.078.069l-1.406.879c-.047.029-.096.056-.14.09a.233.233 0 0 0 .015.384c.033.022.071.037.108.053 1.063.463 2.127.924 3.19 1.388A.8.8 0 0 1 37.62 47c-.058.123-.16.205-.26.288a1124.199 1124.199 0 0 1-2.252 1.827" style="fill:#010202;stroke-width:0.18973941"/>
  </g>
  <g id="car-left">
    <path id="car-2" d="m14.479 43.11.26-.944-3.514-1.152c-.064.157-.098.32-.145.477l-.145.49c-.183-.037-.349-.124-.532-.179l.243-.968-.18-.075v-.084c.001-.246.003-.493.003-.74 0-.243.022-.484.09-.717.02-.068.046-.134.071-.2a.502.502 0 0 1 .242-.28.37.37 0 0 0 .11-.102c.401-.5.802-1.002 1.202-1.504.011-.013.019-.029.029-.045 1.213.4 2.417.795 3.625 1.192l.045.397.172 1.616c.007.065.02.124.065.174a.242.242 0 0 1 .046.114c.03.172.01.343-.04.507-.048.151-.103.3-.165.445a4.586 4.586 0 0 1-.542.882l-.165-.05c-.097.307-.173.62-.265.924a2.194 2.194 0 0 1-.51-.179M12.3 37.427l-.071.084-.364.462c-.197.25-.394.502-.59.754-.024.03-.044.065-.07.105.808.138 1.596.3 2.37.543.773.244 1.516.573 2.263.952l-.198-1.8-3.34-1.1" style="fill:#010202;stroke-width:0.12833987"/>
    <path id="tireprint-right-7" d="m15.155 43.559-.259.167-.75.475c-.012.007-.023.013-.034.021-.13.102-.128.231.007.323.033.022.069.04.105.057l2.16.998c.202.094.312.263.322.503a.648.648 0 0 1-.164.493c-.36.396-.71.804-1.063 1.208l-.06.066h-.985c.017-.031.023-.05.036-.064.195-.209.39-.417.587-.625.294-.313.586-.628.882-.937.147-.153.107-.27-.066-.357-.245-.122-.494-.235-.74-.352l-1.502-.709a.27.27 0 0 1-.16-.2c-.003-.017-.01-.034-.012-.052-.03-.203-.023-.301.165-.419l.922-.576a.21.21 0 0 1 .1-.035c.152-.003.305-.001.457 0 .01 0 .019.005.052.014" style="fill:#010202;stroke-width:0.12833987"/>
    <path id="tireprint-left-0" d="M10.59 47.851h-.91c.025-.03.037-.048.052-.061l1.369-1.221c.138-.124.275-.25.414-.373a.22.22 0 0 0 .072-.199c-.006-.056-.027-.097-.08-.123-.22-.111-.44-.228-.659-.342-.422-.22-.84-.448-1.267-.655-.216-.105-.316-.478-.135-.7a.703.703 0 0 1 .145-.14c.232-.156.467-.309.702-.46a.183.183 0 0 1 .09-.033c.146-.003.292-.001.438 0 .01 0 .018.005.039.012-.02.02-.034.037-.05.049l-.91.622c-.03.02-.061.04-.09.064a.174.174 0 0 0 .01.272c.022.015.046.026.07.037.687.328 1.375.654 2.061.983.276.132.39.472.262.77a.589.589 0 0 1-.168.205 740.514 740.514 0 0 1-1.455 1.293" style="fill:#010202;stroke-width:0.12833987"/>
  </g>
</svg>
