<svg xmlns="http://www.w3.org/2000/svg" id="svg983" width="50" height="50" version="1.1">
  <defs id="defs961">
    <style id="style959" type="text/css">
      <![CDATA[
.drop:nth-of-type(3n) {
	animation: 0.8s linear drops infinite 1s;
}
.drop:nth-of-type(3n+1) {
	animation: 0.5s linear drops infinite -4s;
}
.drop:nth-of-type(3n+2) {
	animation: 0.6s linear drops infinite 3s;
}
@keyframes drops {
	0% {
		transform:  translateX(5px) rotate(15deg) translateY(0px);
	}
	100% {
		transform: translateX(5px) rotate(15deg) translateY(45px);
	}
}
#bolt {
	animation: 5s linear bolt infinite;
}
@keyframes bolt {
	0% {
		fill-opacity: 0;
	}
	25% {
		fill-opacity: 1;
	}
	30% {
		fill-opacity: 0;
	}
	50% {
		fill-opacity: 1;
	}
	55% {
		fill-opacity: 0;
	}
	75% {
		fill-opacity: 1;
	}
	80% {
		fill-opacity: 0;
	}
	95% {
		fill-opacity: 1;
	}
	100% {
		fill-opacity: 0;
	}
}
]]>
    </style>
  </defs>
  <path id="drop-left-1" d="m20.064 29.212-1.125-.568.975-.503c.18-.093.24-.296.133-.453-.106-.157-.337-.21-.517-.117l-1.343.693-2.024-1.023 2.024-1.022 1.343.692c.06.031.126.046.191.046.13 0 .256-.058.326-.163.106-.157.046-.36-.134-.452l-.974-.503 1.125-.568c.18-.092.242-.294.138-.452-.104-.158-.336-.213-.516-.121l-1.125.568-.01-.99c-.002-.183-.173-.33-.381-.328-.21.002-.377.151-.375.334l.014 1.364-2.024 1.023v-2.046l1.357-.67c.182-.09.246-.292.143-.451-.103-.16-.333-.216-.515-.126l-.985.488v-1.137c0-.183-.17-.33-.378-.33-.209 0-.378.147-.378.33v1.137l-.985-.488c-.182-.09-.412-.033-.515.126-.103.159-.039.36.143.45l1.357.671v2.046l-2.024-1.023.014-1.364c.002-.183-.166-.332-.375-.334h-.003c-.207 0-.376.146-.378.328l-.01.99-1.125-.568c-.18-.092-.411-.037-.516.12-.104.159-.042.361.139.452l1.124.569-.975.503c-.18.092-.24.295-.133.452.07.105.196.163.326.163a.419.419 0 0 0 .191-.046l1.343-.692 2.024 1.022-2.024 1.023-1.343-.693c-.18-.092-.411-.04-.517.117-.106.157-.046.36.133.453l.975.503-1.125.568c-.18.091-.242.294-.138.452a.39.39 0 0 0 .328.165c.064 0 .129-.014.188-.044l1.125-.569.01.99c.002.182.171.329.378.329h.003c.21-.002.377-.152.375-.334l-.014-1.364 2.024-1.023v2.045l-1.357.671c-.182.09-.246.292-.143.451a.39.39 0 0 0 .33.168.42.42 0 0 0 .185-.043l.985-.487v1.137c0 .182.17.33.378.33.209 0 .378-.148.378-.33v-1.137l.985.487c.059.03.123.043.186.043a.39.39 0 0 0 .33-.168c.102-.159.038-.36-.144-.45l-1.357-.672v-2.045l2.024 1.023-.014 1.364c-.002.182.165.332.374.334h.004c.207 0 .376-.147.377-.328l.01-.99 1.126.568c.06.03.124.044.188.044a.39.39 0 0 0 .328-.165c.104-.158.042-.36-.138-.452z" class="drop" style="fill:#9ddcd9;fill-opacity:1;stroke:#2979db;stroke-width:0.31021401;stroke-miterlimit:4;stroke-dasharray:none;stroke-opacity:1"/>
  <path id="drop-left-3" d="m12.553 29.677-1.124-.568.974-.503c.18-.093.24-.295.134-.453-.106-.157-.338-.21-.518-.117l-1.342.693-2.025-1.023 2.024-1.022 1.343.693c.06.03.127.045.192.045.13 0 .255-.058.326-.163.106-.157.046-.36-.134-.452l-.975-.503 1.125-.568c.181-.092.243-.294.139-.452-.105-.158-.336-.212-.517-.121l-1.124.568-.01-.99c-.002-.183-.174-.33-.382-.328-.209.002-.376.151-.374.334l.014 1.364-2.025 1.023v-2.046l1.358-.67c.181-.09.245-.292.143-.451-.103-.16-.334-.215-.515-.125l-.985.487v-1.137c0-.182-.17-.33-.378-.33-.21 0-.378.148-.378.33v1.137l-.986-.487c-.181-.09-.412-.034-.514.125-.103.159-.04.36.143.45l1.357.672v2.045L5.494 26.11l.014-1.364c.002-.183-.165-.332-.374-.334h-.003c-.207 0-.376.146-.378.328l-.01.99-1.125-.568c-.18-.091-.412-.037-.516.12-.105.16-.043.361.138.453l1.125.568-.975.503c-.18.093-.24.295-.134.453.07.104.197.162.326.162a.419.419 0 0 0 .192-.045l1.343-.693 2.024 1.023-2.024 1.022-1.343-.693c-.18-.092-.412-.04-.518.117-.106.158-.046.36.134.453l.975.503-1.125.568c-.18.091-.243.294-.138.452a.39.39 0 0 0 .327.165c.064 0 .13-.014.189-.044l1.125-.568.01.99c.002.182.17.328.378.328h.003c.209-.002.376-.151.374-.334l-.014-1.364 2.025-1.023v2.045l-1.357.672c-.182.09-.246.291-.143.45a.39.39 0 0 0 .329.168.42.42 0 0 0 .185-.043l.986-.487v1.137c0 .182.169.33.378.33.208 0 .377-.148.377-.33v-1.137l.986.487c.059.03.122.043.185.043a.39.39 0 0 0 .33-.168c.102-.159.038-.36-.143-.45l-1.358-.672V28.28l2.025 1.023-.015 1.364c-.002.183.166.332.375.334h.003c.207 0 .376-.146.378-.328l.01-.99 1.125.568c.06.03.125.044.189.044a.39.39 0 0 0 .328-.165c.104-.158.042-.36-.139-.452z" class="drop" style="fill:#9ddcd9;fill-opacity:1;stroke:#2979db;stroke-width:0.31021401;stroke-miterlimit:4;stroke-dasharray:none;stroke-opacity:1"/>
  <path id="drop-left-5" d="m36.156 29.432-1.125-.568.975-.503c.18-.093.24-.295.133-.453-.106-.157-.337-.21-.517-.117l-1.343.693-2.024-1.023 2.024-1.022 1.343.692c.06.032.126.046.191.046.13 0 .256-.058.326-.163.106-.157.046-.36-.133-.452l-.975-.503 1.125-.568c.18-.092.242-.294.138-.452-.104-.158-.335-.213-.516-.121l-1.125.568-.01-.99c-.002-.183-.173-.33-.381-.328-.209.002-.377.151-.375.334l.014 1.364-2.024 1.023v-2.046l1.357-.67c.182-.09.246-.292.143-.451-.102-.16-.333-.215-.515-.126l-.985.488v-1.137c0-.182-.17-.33-.378-.33-.209 0-.378.148-.378.33v1.137l-.985-.488c-.182-.09-.412-.033-.515.126-.103.159-.039.36.143.45l1.357.671v2.046l-2.024-1.023.014-1.364c.002-.183-.166-.332-.374-.334h-.004c-.207 0-.376.146-.377.328l-.01.99-1.125-.568c-.181-.092-.412-.037-.517.12-.104.159-.042.361.139.453l1.125.568-.975.503c-.18.092-.24.295-.134.452.07.105.196.163.326.163a.419.419 0 0 0 .191-.045l1.344-.693 2.024 1.022-2.025 1.023-1.343-.693c-.18-.092-.411-.04-.517.117-.106.157-.046.36.134.453l.974.503-1.124.568c-.181.091-.243.294-.139.452a.39.39 0 0 0 .328.165c.064 0 .129-.014.188-.044l1.125-.568.01.99c.002.181.171.328.378.328h.004c.208-.002.376-.151.374-.334l-.014-1.364 2.024-1.023v2.045l-1.357.672c-.182.09-.246.291-.143.45a.39.39 0 0 0 .33.168.42.42 0 0 0 .185-.043l.985-.487v1.137c0 .182.17.33.378.33.209 0 .378-.148.378-.33v-1.137l.985.487c.06.03.123.043.186.043a.39.39 0 0 0 .33-.168c.102-.159.038-.36-.144-.45l-1.357-.672v-2.045l2.024 1.023-.014 1.364c-.002.182.166.332.374.334h.004c.207 0 .376-.146.378-.328l.01-.99 1.125.568c.06.03.124.044.189.044a.39.39 0 0 0 .327-.165c.104-.158.043-.36-.138-.452z" class="drop" style="fill:#9ddcd9;fill-opacity:1;stroke:#2979db;stroke-width:0.31021401;stroke-miterlimit:4;stroke-dasharray:none;stroke-opacity:1"/>
  <path id="drop-left-2" d="m47.912 28.447-1.124-.569.974-.502c.18-.093.24-.296.134-.453-.106-.158-.338-.21-.518-.117l-1.342.693-2.025-1.023 2.024-1.023 1.343.693c.06.031.127.046.192.046.13 0 .255-.058.326-.163.106-.157.046-.36-.134-.453l-.975-.503 1.125-.568c.18-.091.243-.293.139-.452-.105-.158-.336-.212-.517-.12l-1.124.568-.01-.99c-.003-.183-.174-.33-.382-.328-.209.001-.376.15-.374.333l.014 1.364-2.025 1.023v-2.045l1.358-.671c.181-.09.245-.292.143-.45-.103-.16-.334-.216-.515-.126l-.986.487v-1.136c0-.183-.169-.331-.377-.331-.21 0-.378.148-.378.33v1.137l-.986-.487c-.181-.09-.412-.034-.515.125-.102.16-.038.36.144.45l1.357.672v2.045l-2.025-1.023.014-1.364c.002-.182-.165-.332-.374-.333h-.003c-.207 0-.376.146-.378.327l-.01.99-1.125-.568c-.18-.091-.412-.037-.516.121-.105.159-.043.36.138.452l1.125.568-.975.503c-.18.093-.24.296-.134.453.07.105.197.163.326.163a.419.419 0 0 0 .192-.046l1.343-.693 2.024 1.023-2.024 1.023-1.343-.693c-.18-.093-.412-.04-.518.117-.106.157-.046.36.134.452l.975.503-1.125.569c-.18.09-.243.293-.138.451a.39.39 0 0 0 .327.166c.064 0 .13-.015.189-.045l1.125-.568.01.99c.002.182.17.328.378.328h.003c.209-.002.376-.151.374-.334l-.014-1.364 2.025-1.022v2.045l-1.357.671c-.182.09-.246.292-.144.45a.39.39 0 0 0 .33.169.42.42 0 0 0 .185-.043l.986-.487v1.136c0 .183.169.33.378.33.208 0 .377-.147.377-.33v-1.136l.986.487c.059.029.122.043.185.043a.39.39 0 0 0 .33-.168c.102-.16.038-.361-.143-.451l-1.358-.671v-2.045l2.025 1.022-.015 1.364c-.002.183.166.332.375.334h.003c.207 0 .376-.146.378-.327l.01-.99 1.125.567c.06.03.125.045.189.045a.39.39 0 0 0 .328-.166c.104-.158.042-.36-.139-.451z" class="drop" style="fill:#9ddcd9;fill-opacity:1;stroke:#2979db;stroke-width:0.31021401;stroke-miterlimit:4;stroke-dasharray:none;stroke-opacity:1"/>
  <path id="drop-left-6" d="m29.954 14.549-1.125-.569.975-.503c.18-.092.24-.295.133-.452-.106-.158-.337-.21-.517-.117l-1.343.693-2.024-1.023 2.024-1.023 1.343.693c.06.03.126.046.192.046.129 0 .255-.059.325-.163.106-.157.047-.36-.133-.453l-.975-.503 1.125-.568c.18-.091.243-.294.138-.452-.104-.158-.335-.212-.516-.12l-1.125.568-.01-.99c-.002-.183-.173-.33-.381-.328-.209.001-.377.15-.375.333l.014 1.364-2.024 1.023V9.96l1.357-.671c.182-.09.246-.292.143-.451-.102-.159-.333-.215-.515-.125l-.985.487V8.064c0-.183-.169-.331-.378-.331-.208 0-.378.148-.378.33V9.2l-.985-.487c-.182-.09-.412-.034-.515.125-.102.159-.038.36.143.45l1.357.672v2.045l-2.024-1.023.014-1.364c.002-.182-.166-.332-.374-.333h-.004c-.207 0-.375.146-.377.327l-.01.99-1.125-.568c-.181-.091-.412-.037-.516.121-.105.158-.043.36.138.452l1.125.568-.975.503c-.18.093-.24.296-.134.453.07.105.197.163.326.163a.419.419 0 0 0 .192-.046l1.343-.693 2.024 1.023-2.025 1.023-1.342-.693c-.18-.093-.412-.04-.518.117-.106.157-.046.36.134.452l.974.503-1.124.568c-.181.092-.243.294-.139.452a.39.39 0 0 0 .328.166c.064 0 .13-.015.189-.045l1.124-.568.01.99c.003.182.171.328.378.328h.004c.208-.002.376-.151.374-.334l-.014-1.364 2.024-1.023v2.046l-1.357.67c-.181.09-.245.292-.143.451a.39.39 0 0 0 .33.169.42.42 0 0 0 .185-.043l.985-.488v1.137c0 .183.17.33.378.33.209 0 .378-.147.378-.33v-1.137l.985.488c.06.029.123.043.186.043a.39.39 0 0 0 .33-.169c.102-.158.038-.36-.144-.45l-1.357-.671V13.15l2.024 1.023-.014 1.364c-.002.183.166.332.374.334h.004c.207 0 .376-.146.378-.328l.01-.99 1.125.568c.06.03.125.045.189.045a.39.39 0 0 0 .327-.166c.105-.158.043-.36-.138-.451z" class="drop" style="fill:#9ddcd9;fill-opacity:1;stroke:#2979db;stroke-width:0.31021401;stroke-miterlimit:4;stroke-dasharray:none;stroke-opacity:1"/>
  <path id="drop-left-4" d="m36.213 18.363-1.125-.568.975-.503c.18-.093.24-.296.134-.453-.106-.157-.338-.21-.518-.117l-1.342.693-2.025-1.023 2.024-1.022 1.343.692c.06.031.127.046.192.046.13 0 .255-.058.326-.163.106-.157.046-.36-.134-.452l-.975-.503 1.125-.569c.18-.09.243-.293.138-.451-.104-.158-.335-.213-.516-.121l-1.124.568-.01-.99c-.003-.183-.174-.33-.382-.328-.209.002-.376.151-.374.334l.014 1.364-2.025 1.023v-2.046l1.358-.67c.181-.09.245-.292.143-.451-.103-.16-.334-.216-.515-.126l-.986.488v-1.137c0-.183-.169-.33-.377-.33-.21 0-.378.147-.378.33v1.137l-.986-.488c-.181-.09-.412-.033-.515.126-.102.159-.038.36.143.45l1.358.671v2.046l-2.025-1.023.014-1.364c.002-.183-.165-.332-.374-.334h-.003c-.207 0-.376.146-.378.328l-.01.99-1.125-.568c-.18-.092-.412-.037-.516.12-.105.159-.043.361.138.452l1.125.569-.975.503c-.18.092-.24.295-.134.452.07.105.197.163.326.163a.419.419 0 0 0 .192-.046l1.343-.692 2.024 1.022-2.024 1.023-1.343-.693c-.18-.092-.412-.04-.518.117-.106.157-.046.36.134.453l.975.503-1.125.568c-.18.091-.243.294-.138.452a.39.39 0 0 0 .327.165c.064 0 .13-.014.189-.044l1.125-.569.01.99c.002.182.17.328.378.328h.003c.209-.001.376-.15.374-.333l-.014-1.364 2.025-1.023v2.045l-1.358.671c-.181.09-.245.292-.143.451a.39.39 0 0 0 .33.168.42.42 0 0 0 .185-.043l.986-.487v1.137c0 .182.169.33.378.33.208 0 .377-.148.377-.33V19.77l.986.487c.058.03.122.043.185.043a.39.39 0 0 0 .33-.168c.102-.159.038-.36-.143-.45l-1.358-.672v-2.045l2.025 1.023-.015 1.364c-.002.182.166.332.375.333h.003c.207 0 .376-.146.378-.327l.01-.99 1.125.568c.06.03.125.044.189.044a.39.39 0 0 0 .328-.165c.104-.158.042-.36-.139-.452z" class="drop" style="fill:#9ddcd9;fill-opacity:1;stroke:#2979db;stroke-width:0.31021401;stroke-miterlimit:4;stroke-dasharray:none;stroke-opacity:1"/>
  <path id="bolt" d="m29.602 43.054-2.553 3.52c-2.517 3.469-4.73 5.017-5.138 1.624-.22-1.82.66-3.538 1.288-5.37h-1.928a.143.143 0 0 1-.124-.078.175.175 0 0 1-.004-.158l2.066-4.36h-3.064a.143.143 0 0 1-.124-.078.176.176 0 0 1-.005-.157l3.433-7.397a.144.144 0 0 1 .13-.087h8.23c.052 0 .1.03.126.08a.175.175 0 0 1 0 .161l-2.034 3.86h2.286c.053 0 .102.032.127.083a.175.175 0 0 1-.005.164l-2.93 5.079h2.233c.056 0 .108.036.131.092a.174.174 0 0 1-.02.17l-1.548 2.083" style="fill:#f29f26;stroke-width:0.03345951"/>
  <g id="cloud-top">
    <path id="path2327" d="m46.792 9.041-.315-.139c.45-1.496.302-3.144-.421-4.663C44.81 1.625 42.206 0 39.257 0c-.528 0-1.075.065-1.625.195-.67.158-1.326.41-1.95.75a8.293 8.293 0 0 0-.858.54c-.554.397-1.05.859-1.476 1.373-.307.37-.573.756-.789 1.147l-.147.266a6.369 6.369 0 0 0-4.167.36 6.04 6.04 0 0 0-1.813 1.238 5.89 5.89 0 0 0-1.66 3.261l-.037.235c-1.65.247-2.691 1.026-3.279 1.645-.939.989-1.456 2.313-1.456 3.727 0 2.605 1.813 5.241 5.278 5.241.999 0 4.068.004 7.468.009l1.603.002c4.09.006 8.263.011 9.653.011 2.921 0 5.215-1.78 5.842-4.532.617-2.708-.638-5.35-3.052-6.427m-18.437 1.765a.375.375 0 0 0-.098-.493 7.044 7.044 0 0 0-2.113-1.099c.402-2.22 2.362-3.817 4.718-3.817 1.63 0 3.305.844 4.372 2.203.119.15.355.196.523.1a.379.379 0 0 0 .162-.49c-.61-1.33-1.64-2.323-2.08-2.709 1.114-1.908 3.273-3.181 5.42-3.181 2.406 0 4.535 1.33 5.554 3.47.916 1.922.677 4.023-.622 5.484a5.61 5.61 0 0 1-1.661 1.273.378.378 0 0 0-.194.463.398.398 0 0 0 .379.263l.065-.005c2.125-.338 3.204-1.563 3.56-1.966a.032.032 0 0 1 .004-.004c2.027.982 2.548 3.204 2.165 4.884-.386 1.691-1.772 3.497-4.506 3.497-1.431 0-5.81-.006-10.012-.012-3.873-.005-7.593-.01-8.713-.01-2.567 0-3.91-1.973-3.91-3.922 0-1.083.39-2.09 1.097-2.834.805-.847 1.97-1.296 3.37-1.296.69 0 1.374.125 2.03.369a.414.414 0 0 0 .49-.168" class="contour" style="fill:#808080;stroke-width:0.61076844;fill-opacity:1"/>
    <path id="path2327-1" d="M28.355 10.806a.375.375 0 0 0-.098-.493 7.044 7.044 0 0 0-2.113-1.099c.402-2.22 2.362-3.817 4.718-3.817 1.63 0 3.305.844 4.372 2.203.119.15.355.196.523.1a.379.379 0 0 0 .162-.49c-.61-1.33-1.64-2.323-2.08-2.709 1.114-1.908 3.273-3.181 5.42-3.181 2.406 0 4.535 1.33 5.554 3.47.916 1.922.677 4.023-.622 5.484a5.61 5.61 0 0 1-1.661 1.273.378.378 0 0 0-.194.463.398.398 0 0 0 .379.263l.065-.005c2.125-.338 3.204-1.563 3.56-1.966a.032.032 0 0 1 .004-.004c2.027.982 2.548 3.204 2.165 4.884-.386 1.691-1.772 3.497-4.506 3.497-1.431 0-5.81-.006-10.012-.012-3.873-.005-7.593-.01-8.713-.01-2.567 0-3.91-1.973-3.91-3.922 0-1.083.39-2.09 1.097-2.834.805-.847 1.97-1.296 3.37-1.296.69 0 1.374.125 2.03.369a.414.414 0 0 0 .49-.168" class="inside" style="fill:#b3b3b3;stroke-width:0.61076844;fill-opacity:1"/>
  </g>
  <g id="cloud-bottom">
    <path id="path2327-6" d="m35.723 21.302-.42-.174c.6-1.87.402-3.93-.562-5.829C33.08 12.031 29.608 10 25.676 10c-.704 0-1.433.082-2.166.244a10.91 10.91 0 0 0-3.745 1.611c-.738.498-1.4 1.075-1.968 1.717-.41.463-.764.946-1.051 1.434l-.197.333a9.015 9.015 0 0 0-5.556.45 8.094 8.094 0 0 0-2.417 1.548c-.358.333-.688.71-.984 1.124a7.056 7.056 0 0 0-1.228 2.952l-.05.294c-2.2.308-3.589 1.281-4.372 2.055A6.5 6.5 0 0 0 0 28.421c0 3.256 2.417 6.552 7.037 6.552 1.332 0 5.424.005 9.957.01l2.139.003c5.451.007 11.016.014 12.87.014 3.894 0 6.953-2.224 7.79-5.665.822-3.385-.851-6.687-4.07-8.033m-24.582 2.206a.45.45 0 0 0-.131-.617 9.627 9.627 0 0 0-2.817-1.373c.535-2.776 3.148-4.772 6.29-4.772 2.173 0 4.407 1.056 5.83 2.754a.587.587 0 0 0 .696.124c.233-.124.326-.386.217-.61-.814-1.663-2.188-2.905-2.774-3.387 1.485-2.386 4.364-3.977 7.226-3.977 3.21 0 6.048 1.662 7.406 4.338 1.22 2.402.902 5.028-.83 6.854a7.446 7.446 0 0 1-2.215 1.591c-.233.11-.341.355-.257.58a.53.53 0 0 0 .504.329l.088-.007c2.833-.422 4.272-1.954 4.745-2.457a.036.036 0 0 1 .006-.006c2.702 1.228 3.398 4.005 2.886 6.106-.514 2.113-2.362 4.37-6.008 4.37-1.907 0-7.746-.007-13.349-.014-5.163-.006-10.124-.013-11.617-.013-3.422 0-5.212-2.466-5.212-4.902 0-1.354.519-2.613 1.462-3.543 1.073-1.06 2.627-1.62 4.493-1.62a8.19 8.19 0 0 1 2.706.461.572.572 0 0 0 .655-.21" class="contour" style="fill:#808080;stroke-width:0.78849864;fill-opacity:1"/>
    <path id="path2327-1-7" d="M11.14 23.508a.45.45 0 0 0-.13-.617 9.627 9.627 0 0 0-2.817-1.373c.535-2.776 3.148-4.772 6.29-4.772 2.173 0 4.407 1.056 5.83 2.754a.587.587 0 0 0 .696.124c.233-.124.326-.386.217-.61-.814-1.663-2.188-2.905-2.774-3.387 1.485-2.386 4.364-3.977 7.226-3.977 3.21 0 6.048 1.662 7.406 4.338 1.22 2.402.902 5.028-.83 6.854a7.446 7.446 0 0 1-2.215 1.591c-.233.11-.341.355-.257.58a.53.53 0 0 0 .504.329l.088-.007c2.833-.422 4.272-1.954 4.745-2.457a.036.036 0 0 1 .006-.006c2.702 1.228 3.398 4.005 2.886 6.106-.514 2.113-2.362 4.37-6.008 4.37-1.907 0-7.746-.007-13.349-.014-5.163-.006-10.124-.013-11.617-.013-3.422 0-5.212-2.466-5.212-4.902 0-1.354.519-2.613 1.462-3.543 1.073-1.06 2.627-1.62 4.493-1.62a8.19 8.19 0 0 1 2.706.461.572.572 0 0 0 .655-.21" class="inside" style="fill:#b3b3b3;stroke-width:0.78849864;fill-opacity:1"/>
  </g>
</svg>
