<svg xmlns="http://www.w3.org/2000/svg" id="svg1596" width="50" height="50" x="0" y="0" version="1.1">
  <defs id="defs1590">
    <style id="style1588" type="text/css">
      <![CDATA[
#cloud {
	animation: cloud 15s linear infinite;
	transform-origin: 50% 50%;
}
@keyframes cloud {
	0% {
		transform: scale(1) translate(0px,0px);
	}
	25% {
		transform: scale(1.3) translate(10px, -5px);
	}
	50% {
		transform: scale(0.9) translate(-2px, 5px);
	}
	75% {
		transform: scale(1.1) translate(5px, -10px);
	100% {
		transform: scale(1) translate(0px, 0px);
	}
}
]]>
    </style>
  </defs>
  <ellipse id="ellipse4" cx="24.838" cy="24.66" rx="15.241" ry="15.132" style="fill:#c0c0c0;stroke-width:0.09796961"/>
  <g id="cloud">
    <path id="path14" d="M27.35 39.244a4.792 4.792 0 0 0-2.565-1.443 5.271 5.271 0 0 0-1.102-2.444 5.321 5.321 0 0 0-4.208-2.03l-.14.004-.1-.026-.023.031a5.33 5.33 0 0 0-.777.097c-.21-.4-.47-.78-.774-1.138-.515-.64-1.024-1-1.632-1.375-1.03-.628-2.204-.992-3.31-.992-2.278 0-4.34 1.177-5.516 3.148-.056.094-.108.205-.16.308-.306.593-.636 1.492-.692 2.177-.08.718-.031 1.63.095 2.092-1.034.292-2 1.327-2.405 2.225-.404.899-.47 2.81-.071 4.023.71 2.164 2.6 3.48 4.93 3.48h.06c1.204 0 4.675.023 8.005.018 3.112-.004 6.1.005 7.002.005 3.06 0 4.66-2.4 4.66-4.778.001-1.284-.453-2.48-1.277-3.382m-3.383 6.62c-.908 0-3.934.036-7.07.04-3.31.004-6.741.04-7.937.04H8.9c-1.649 0-2.93-.949-3.429-2.463-.52-1.584-.028-3.341 1.196-4.241.497-.367 1.01-.63 1.523-.737l.281-.06-.135-.254c-.686-1.271-.6-2.919.225-4.3.888-1.489 2.442-2.378 4.158-2.378 1.83 0 4.101 1.288 4.701 3.676l.064.255.238-.113c1.752-.835 3.654-.342 4.729 1.022.608.753.895 1.811.808 2.78l.03.344h.235c1.106 0 2.025.257 2.658.949.557.608.865 1.377.865 2.263 0 1.543-.965 3.177-3.08 3.177" style="fill:#b3b3b3;stroke-width:0.71890676"/>
    <path id="path833" d="M12.441 31.427c-2.485.18-4.804 2.41-4.605 4.993-.01.677.182 1.333.454 1.947-2.24.456-3.765 3.041-2.876 5.189.546 1.448 2.012 2.665 3.627 2.428 5.083.02 10.173.094 15.252-.119 1.724.051 2.988-1.724 2.802-3.35.048-1.529-1.171-2.862-2.668-3.057-.707-.02-1.218-.186-1.078-1.014-.159-2.035-2.036-3.833-4.125-3.577-.58.027-1.191.284-1.718.369-.5-2.274-2.767-3.884-5.065-3.809z" style="opacity:1;fill:#ffffff;fill-opacity:1;stroke:none;stroke-width:20.15117073;stroke-linecap:round;stroke-linejoin:round;stroke-miterlimit:9;stroke-dasharray:none;stroke-opacity:1;paint-order:normal"/>
  </g>
</svg>
