<svg xmlns="http://www.w3.org/2000/svg" id="svg889" width="50" height="50" x="0" y="0" version="1.1">
  <defs id="defs885">
    <style id="style883" type="text/css">
      <![CDATA[
#sun {
	animation: sun-animation 15s infinite linear;
	transform-origin: 50% 50%;
}
@keyframes sun-animation {
	0% {
		transform: scale(0.8) rotate(0deg);
    fill-opacity: 0.5;
	}
	50% {
		transform: scale(1.0) rotate(180deg);
    fill-opacity: 0.8;
	}
	100% {
		transform: scale(0.8) rotate(360deg);
    fill-opacity: 0.5;
	}
}
]]>
    </style>
  </defs>
  <g id="sun">
    <path id="path2" d="m49.751 29.454-5.383-4.718 5.193-4.922a.726.726 0 0 0-.306-1.23l-6.911-1.98 2.554-6.647a.724.724 0 0 0-.118-.722.745.745 0 0 0-.692-.26l-7.103 1.139-.578-7.086a.731.731 0 0 0-.42-.602.748.748 0 0 0-.738.059l-5.923 4.037L25.728.365a.742.742 0 0 0-.64-.365.741.741 0 0 0-.641.365l-4.13 7.068-7.145-4.097a.748.748 0 0 0-.74-.002.73.73 0 0 0-.371.632l-.017 7.109-7.172-.587a.744.744 0 0 0-.669.312.723.723 0 0 0-.06.728l3.07 6.43-6.734 2.507a.726.726 0 0 0-.208 1.25l5.565 4.506L.842 31.34a.725.725 0 0 0-.179.709.736.736 0 0 0 .533.507l6.983 1.714-2.29 6.74a.724.724 0 0 0 .148.716.745.745 0 0 0 .701.232l7.053-1.41.857 7.058c.031.26.2.483.444.585.243.103.523.07.734-.087l5.76-4.262 3.838 5.817a.742.742 0 0 0 .654.34.74.74 0 0 0 .626-.39l3.353-6.094 6.077 3.806c.224.14.505.152.74.03a.73.73 0 0 0 .396-.617l.298-7.103 7.142.864a.745.745 0 0 0 .681-.286.724.724 0 0 0 .09-.726l-2.814-6.543 6.827-2.246a.726.726 0 0 0 .257-1.24z" style="fill:#ffa600;stroke-width:0.09796961"/>
    <ellipse id="ellipse4" cx="24.838" cy="24.66" rx="15.241" ry="15.132" style="fill:#ffdb2d;stroke-width:0.09796961"/>
  </g>
  <path id="path2105-2" d="M23.585 41.842H8.183c-1.503 0-2.718 1.27-2.718 2.836 0 1.569 1.215 2.842 2.718 2.842h15.402c1.504 0 2.721-1.27 2.721-2.842 0-1.563-1.217-2.836-2.72-2.836" style="fill:#cbd5d8;stroke-width:2.54280019;fill-opacity:0.86734694"/>
  <path id="path1533-9" d="M8.18 30.33a2.844 2.844 0 0 0-2.852 2.837 2.847 2.847 0 0 0 2.851 2.841c1.577 0 2.851-1.27 2.851-2.841a2.844 2.844 0 0 0-2.85-2.836" style="fill:#cbd5d8;stroke-width:2.60397148;fill-opacity:0.86734694"/>
  <path id="path2105-2-5" d="M43.318 30.33H15.916c-1.503 0-2.718 1.27-2.718 2.837 0 1.569 1.215 2.841 2.718 2.841h27.402c1.504 0 2.721-1.27 2.721-2.841 0-1.564-1.217-2.836-2.72-2.836" style="fill:#cbd5d8;stroke-width:2.54280019;fill-opacity:0.86734694"/>
  <path id="path2105-2-5-0" d="M44.632 17.83H3.23C1.726 17.83.51 19.1.51 20.668c0 1.569 1.215 2.841 2.719 2.841h41.402c1.504 0 2.721-1.27 2.721-2.841 0-1.564-1.217-2.836-2.721-2.836" style="fill:#cbd5d8;stroke-width:2.54280019;fill-opacity:0.86734694"/>
  <path id="path2105-2-4" d="M42.26 41.842h-9.403c-1.504 0-2.718 1.27-2.718 2.836 0 1.569 1.214 2.842 2.718 2.842h9.402c1.504 0 2.721-1.27 2.721-2.842 0-1.563-1.217-2.836-2.72-2.836" style="fill:#cbd5d8;stroke-width:2.54280019;fill-opacity:0.86734694"/>
  <path id="path2105-2-5-8" d="M29.496 4.907H8.094c-1.503 0-2.718 1.27-2.718 2.836 0 1.569 1.215 2.842 2.718 2.842h21.402c1.504 0 2.721-1.27 2.721-2.842 0-1.563-1.217-2.836-2.72-2.836" style="fill:#cbd5d8;stroke-width:2.54280019;fill-opacity:0.86734694"/>
  <path id="path2105-2-1" d="M43.412 4.907H36.01c-1.504 0-2.719 1.27-2.719 2.836 0 1.569 1.215 2.842 2.719 2.842h7.402c1.503 0 2.72-1.27 2.72-2.842 0-1.563-1.217-2.836-2.72-2.836" style="fill:#cbd5d8;stroke-width:2.54280019;fill-opacity:0.86734694"/>
</svg>
