<svg xmlns="http://www.w3.org/2000/svg" id="svg983" width="50" height="50" version="1.1">
  <defs id="defs961">
    <style id="style959" type="text/css">
      <![CDATA[
.drop:nth-of-type(4n) {
	animation: 1.2s linear drops infinite 1s;
}
.drop:nth-of-type(4n+1) {
	animation: 1s linear drops infinite -2s;
}
.drop:nth-of-type(4n+2) {
	animation: 1s linear drops infinite 1.5s;
}
.drop:nth-of-type(4n+3) {
	animation: 1.2s linear drops infinite 1s;
}
@keyframes drops {
	0% {
		transform:  translateX(5px) rotate(15deg) translateY(0px);
	}
	100% {
		transform: translateX(5px) rotate(15deg) translateY(45px);
	}
}
]]>
    </style>
  </defs>
  <path id="drop-left-1" d="m20.064 29.212-1.125-.568.975-.503c.18-.093.24-.296.133-.453-.106-.157-.337-.21-.517-.117l-1.343.693-2.024-1.023 2.024-1.022 1.343.692c.06.031.126.046.191.046.13 0 .256-.058.326-.163.106-.157.046-.36-.134-.452l-.974-.503 1.125-.568c.18-.092.242-.294.138-.452-.104-.158-.336-.213-.516-.121l-1.125.568-.01-.99c-.002-.183-.173-.33-.381-.328-.21.002-.377.151-.375.334l.014 1.364-2.024 1.023v-2.046l1.357-.67c.182-.09.246-.292.143-.451-.103-.16-.333-.216-.515-.126l-.985.488v-1.137c0-.183-.17-.33-.378-.33-.209 0-.378.147-.378.33v1.137l-.985-.488c-.182-.09-.412-.033-.515.126-.103.159-.039.36.143.45l1.357.671v2.046l-2.024-1.023.014-1.364c.002-.183-.166-.332-.375-.334h-.003c-.207 0-.376.146-.378.328l-.01.99-1.125-.568c-.18-.092-.411-.037-.516.12-.104.159-.042.361.139.452l1.124.569-.975.503c-.18.092-.24.295-.133.452.07.105.196.163.326.163a.419.419 0 0 0 .191-.046l1.343-.692 2.024 1.022-2.024 1.023-1.343-.693c-.18-.092-.411-.04-.517.117-.106.157-.046.36.133.453l.975.503-1.125.568c-.18.091-.242.294-.138.452a.39.39 0 0 0 .328.165c.064 0 .129-.014.188-.044l1.125-.569.01.99c.002.182.171.329.378.329h.003c.21-.002.377-.152.375-.334l-.014-1.364 2.024-1.023v2.045l-1.357.671c-.182.09-.246.292-.143.451a.39.39 0 0 0 .33.168.42.42 0 0 0 .185-.043l.985-.487v1.137c0 .182.17.33.378.33.209 0 .378-.148.378-.33v-1.137l.985.487c.059.03.123.043.186.043a.39.39 0 0 0 .33-.168c.102-.159.038-.36-.144-.45l-1.357-.672v-2.045l2.024 1.023-.014 1.364c-.002.182.165.332.374.334h.004c.207 0 .376-.147.377-.328l.01-.99 1.126.568c.06.03.124.044.188.044a.39.39 0 0 0 .328-.165c.104-.158.042-.36-.138-.452z" class="drop" style="fill:#9ddcd9;fill-opacity:1;stroke:#2979db;stroke-width:0.31021401;stroke-miterlimit:4;stroke-dasharray:none;stroke-opacity:1"/>
  <path id="path7217" d="M8.275 24.329c.432-.552.88-1.123 1.24-1.735.096-.162.362-.162.456 0 .362.612.81 1.183 1.242 1.735.878 1.12 1.706 2.177 1.706 3.427a3.179 3.179 0 0 1-3.175 3.176 3.179 3.179 0 0 1-3.176-3.176c0-1.25.829-2.308 1.707-3.427z" class="drop" style="fill:#89cbd9;fill-opacity:1;stroke:#3a8bf2;stroke-width:1;stroke-miterlimit:4;stroke-dasharray:none;stroke-opacity:1"/>
  <path id="path7219" d="M30.286 25.342c.415-.553.844-1.123 1.19-1.735.091-.162.346-.162.437 0 .346.612.775 1.182 1.19 1.735.841 1.119 1.636 2.176 1.636 3.427 0 1.752-1.365 3.176-3.044 3.176s-3.044-1.424-3.044-3.176c0-1.25.794-2.308 1.635-3.427z" class="drop" style="fill:#89cbd9;fill-opacity:1;stroke:#3a8bf2;stroke-width:0.97902906;stroke-miterlimit:4;stroke-dasharray:none;stroke-opacity:1"/>
  <path id="drop-left-2" d="m47.912 28.447-1.124-.569.974-.502c.18-.093.24-.296.134-.453-.106-.158-.338-.21-.518-.117l-1.342.693-2.025-1.023 2.024-1.023 1.343.693c.06.031.127.046.192.046.13 0 .255-.058.326-.163.106-.157.046-.36-.134-.453l-.975-.503 1.125-.568c.18-.091.243-.293.139-.452-.105-.158-.336-.212-.517-.12l-1.124.568-.01-.99c-.003-.183-.174-.33-.382-.328-.209.001-.376.15-.374.333l.014 1.364-2.025 1.023v-2.045l1.358-.671c.181-.09.245-.292.143-.45-.103-.16-.334-.216-.515-.126l-.986.487v-1.136c0-.183-.169-.331-.377-.331-.21 0-.378.148-.378.33v1.137l-.986-.487c-.181-.09-.412-.034-.515.125-.102.16-.038.36.144.45l1.357.672v2.045l-2.025-1.023.014-1.364c.002-.182-.165-.332-.374-.333h-.003c-.207 0-.376.146-.378.327l-.01.99-1.125-.568c-.18-.091-.412-.037-.516.121-.105.159-.043.36.138.452l1.125.568-.975.503c-.18.093-.24.296-.134.453.07.105.197.163.326.163a.419.419 0 0 0 .192-.046l1.343-.693 2.024 1.023-2.024 1.023-1.343-.693c-.18-.093-.412-.04-.518.117-.106.157-.046.36.134.452l.975.503-1.125.569c-.18.09-.243.293-.138.451a.39.39 0 0 0 .327.166c.064 0 .13-.015.189-.045l1.125-.568.01.99c.002.182.17.328.378.328h.003c.209-.002.376-.151.374-.334l-.014-1.364 2.025-1.022v2.045l-1.357.671c-.182.09-.246.292-.144.45a.39.39 0 0 0 .33.169.42.42 0 0 0 .185-.043l.986-.487v1.136c0 .183.169.33.378.33.208 0 .377-.147.377-.33v-1.136l.986.487c.059.029.122.043.185.043a.39.39 0 0 0 .33-.168c.102-.16.038-.361-.143-.451l-1.358-.671v-2.045l2.025 1.022-.015 1.364c-.002.183.166.332.375.334h.003c.207 0 .376-.146.378-.327l.01-.99 1.125.567c.06.03.125.045.189.045a.39.39 0 0 0 .328-.166c.104-.158.042-.36-.139-.451z" class="drop" style="fill:#9ddcd9;fill-opacity:1;stroke:#2979db;stroke-width:0.31021401;stroke-miterlimit:4;stroke-dasharray:none;stroke-opacity:1"/>
  <g id="cloud-top" transform="matrix(1.0037 0 0 1.0037 12.86 -8.066)">
    <path id="path2327" d="m31.842 23.646-.526-.232c.75-2.493.503-5.241-.703-7.772-2.075-4.358-6.416-7.066-11.33-7.066-.88 0-1.792.109-2.708.325a13.095 13.095 0 0 0-3.251 1.25 13.82 13.82 0 0 0-1.43.899 13.246 13.246 0 0 0-2.46 2.289A12.461 12.461 0 0 0 8.12 15.25l-.246.444a10.613 10.613 0 0 0-6.945.6 10.066 10.066 0 0 0-3.021 2.064c-.448.444-.86.948-1.23 1.499a9.756 9.756 0 0 0-1.536 3.936l-.062.392c-2.75.41-4.486 1.709-5.466 2.74-1.564 1.65-2.427 3.856-2.427 6.213 0 4.342 3.022 8.737 8.796 8.737 1.666 0 6.781.006 12.447.014l2.673.003c6.815.01 13.77.019 16.088.019 4.868 0 8.691-2.966 9.737-7.554 1.028-4.513-1.064-8.917-5.086-10.712M1.113 26.588a.625.625 0 0 0-.164-.823 11.74 11.74 0 0 0-3.52-1.831c.669-3.701 3.935-6.362 7.861-6.362 2.718 0 5.51 1.407 7.288 3.672.198.25.59.326.87.165a.631.631 0 0 0 .272-.814c-1.018-2.217-2.735-3.873-3.468-4.516 1.856-3.181 5.455-5.303 9.033-5.303 4.011 0 7.56 2.217 9.258 5.785 1.525 3.202 1.127 6.704-1.037 9.139a9.352 9.352 0 0 1-2.77 2.122.63.63 0 0 0-.322.773.664.664 0 0 0 .631.438l.11-.01c3.541-.562 5.34-2.604 5.931-3.275a.048.048 0 0 1 .007-.008c3.379 1.637 4.248 5.34 3.609 8.142-.643 2.818-2.954 5.828-7.51 5.828-2.385 0-9.684-.01-16.687-.02-6.454-.008-12.655-.017-14.521-.017-4.278 0-6.516-3.288-6.516-6.536 0-1.806.649-3.484 1.828-4.725 1.341-1.412 3.283-2.16 5.616-2.16 1.151 0 2.29.208 3.383.615a.69.69 0 0 0 .818-.28" class="contour" style="fill:#808080;stroke-width:1.01798809"/>
    <path id="path2327-1" d="M1.113 26.588a.625.625 0 0 0-.164-.823 11.74 11.74 0 0 0-3.52-1.831c.669-3.701 3.935-6.362 7.861-6.362 2.718 0 5.51 1.407 7.288 3.672.198.25.59.326.87.165a.631.631 0 0 0 .272-.814c-1.018-2.217-2.735-3.873-3.468-4.516 1.856-3.181 5.455-5.303 9.033-5.303 4.011 0 7.56 2.217 9.258 5.785 1.525 3.202 1.127 6.704-1.037 9.139a9.352 9.352 0 0 1-2.77 2.122.63.63 0 0 0-.322.773.664.664 0 0 0 .631.438l.11-.01c3.541-.562 5.34-2.604 5.931-3.275a.048.048 0 0 1 .007-.008c3.379 1.637 4.248 5.34 3.609 8.142-.643 2.818-2.954 5.828-7.51 5.828-2.385 0-9.684-.01-16.687-.02-6.454-.008-12.655-.017-14.521-.017-4.278 0-6.516-3.288-6.516-6.536 0-1.806.649-3.484 1.828-4.725 1.341-1.412 3.283-2.16 5.616-2.16 1.151 0 2.29.208 3.383.615a.69.69 0 0 0 .818-.28" class="inside" style="fill:#b3b3b3;fill-opacity:1;stroke-width:1.01999998"/>
  </g>
  <g id="cloud-bottom">
    <path id="path2327-6" d="m35.723 21.302-.42-.174c.6-1.87.402-3.93-.562-5.829C33.08 12.031 29.608 10 25.676 10c-.704 0-1.433.082-2.166.244a10.91 10.91 0 0 0-3.745 1.611c-.738.498-1.4 1.075-1.968 1.717-.41.463-.764.946-1.051 1.434l-.197.333a9.015 9.015 0 0 0-5.556.45 8.094 8.094 0 0 0-2.417 1.548c-.358.333-.688.71-.984 1.124a7.056 7.056 0 0 0-1.228 2.952l-.05.294c-2.2.308-3.589 1.281-4.372 2.055A6.5 6.5 0 0 0 0 28.421c0 3.256 2.417 6.552 7.037 6.552 1.332 0 5.424.005 9.957.01l2.139.003c5.451.007 11.016.014 12.87.014 3.894 0 6.953-2.224 7.79-5.665.822-3.385-.851-6.687-4.07-8.033m-24.582 2.206a.45.45 0 0 0-.131-.617 9.627 9.627 0 0 0-2.817-1.373c.535-2.776 3.148-4.772 6.29-4.772 2.173 0 4.407 1.056 5.83 2.754a.587.587 0 0 0 .696.124c.233-.124.326-.386.217-.61-.814-1.663-2.188-2.905-2.774-3.387 1.485-2.386 4.364-3.977 7.226-3.977 3.21 0 6.048 1.662 7.406 4.338 1.22 2.402.902 5.028-.83 6.854a7.446 7.446 0 0 1-2.215 1.591c-.233.11-.341.355-.257.58a.53.53 0 0 0 .504.329l.088-.007c2.833-.422 4.272-1.954 4.745-2.457a.036.036 0 0 1 .006-.006c2.702 1.228 3.398 4.005 2.886 6.106-.514 2.113-2.362 4.37-6.008 4.37-1.907 0-7.746-.007-13.349-.014-5.163-.006-10.124-.013-11.617-.013-3.422 0-5.212-2.466-5.212-4.902 0-1.354.519-2.613 1.462-3.543 1.073-1.06 2.627-1.62 4.493-1.62a8.19 8.19 0 0 1 2.706.461.572.572 0 0 0 .655-.21" class="contour" style="fill:#cbd5d8;stroke-width:0.78849864"/>
    <path id="path2327-1-7" d="M11.14 23.508a.45.45 0 0 0-.13-.617 9.627 9.627 0 0 0-2.817-1.373c.535-2.776 3.148-4.772 6.29-4.772 2.173 0 4.407 1.056 5.83 2.754a.587.587 0 0 0 .696.124c.233-.124.326-.386.217-.61-.814-1.663-2.188-2.905-2.774-3.387 1.485-2.386 4.364-3.977 7.226-3.977 3.21 0 6.048 1.662 7.406 4.338 1.22 2.402.902 5.028-.83 6.854a7.446 7.446 0 0 1-2.215 1.591c-.233.11-.341.355-.257.58a.53.53 0 0 0 .504.329l.088-.007c2.833-.422 4.272-1.954 4.745-2.457a.036.036 0 0 1 .006-.006c2.702 1.228 3.398 4.005 2.886 6.106-.514 2.113-2.362 4.37-6.008 4.37-1.907 0-7.746-.007-13.349-.014-5.163-.006-10.124-.013-11.617-.013-3.422 0-5.212-2.466-5.212-4.902 0-1.354.519-2.613 1.462-3.543 1.073-1.06 2.627-1.62 4.493-1.62a8.19 8.19 0 0 1 2.706.461.572.572 0 0 0 .655-.21" class="inside" style="fill:#ffffff;stroke-width:0.78849864"/>
  </g>
</svg>
