<svg xmlns="http://www.w3.org/2000/svg" id="svg4952" width="50" height="50" version="1.1">
  <defs id="defs4943">
    <style id="style4941" type="text/css">
      <![CDATA[
#sun {
	animation: sun 24s linear infinite;
	transform-origin: 27.5px 22.5px;
}
@keyframes sun {
	0% {
		transform: rotate(0deg);
	}
	100% {
		transform: rotate(360deg);
	}
}
#cloud-left {
	animation: passing 12s infinite alternate linear;
	transform-origin: 50% 50%;
}
@keyframes passing {
	0% {
		transform: translateX(-10px);
	}
	100% {
		transform: translateX(10px);
	}
}
]]>
    </style>
  </defs>
  <g id="sun">
    <path id="path2" d="m49.776 26.509-4.845-4.247 4.674-4.43a.653.653 0 0 0-.276-1.106l-6.22-1.783 2.3-5.982a.652.652 0 0 0-.107-.65.67.67 0 0 0-.623-.233l-6.393 1.024-.52-6.377a.658.658 0 0 0-.378-.542.673.673 0 0 0-.664.053l-5.33 3.634L28.155.329A.667.667 0 0 0 27.58 0a.667.667 0 0 0-.577.329l-3.717 6.36-6.43-3.687a.673.673 0 0 0-.666-.001.656.656 0 0 0-.334.568l-.016 6.398-6.454-.528a.67.67 0 0 0-.602.28.65.65 0 0 0-.055.656l2.763 5.786-6.06 2.258a.653.653 0 0 0-.187 1.124l5.008 4.056-4.495 4.607a.652.652 0 0 0-.16.638c.066.226.248.4.48.457l6.284 1.542-2.06 6.066a.652.652 0 0 0 .132.644.67.67 0 0 0 .631.21l6.348-1.27.771 6.353c.028.233.18.434.4.526.218.093.47.063.66-.078l5.184-3.836 3.454 5.235a.668.668 0 0 0 1.153-.044l3.017-5.485 5.47 3.425a.673.673 0 0 0 .665.027.657.657 0 0 0 .357-.555l.268-6.393 6.428.777a.67.67 0 0 0 .613-.257.651.651 0 0 0 .08-.653L43.4 29.646l6.144-2.021a.653.653 0 0 0 .232-1.116z" style="fill:#ffa600;stroke-width:0.08817264"/>
    <ellipse id="ellipse4" cx="27.354" cy="22.194" rx="13.717" ry="13.619" style="fill:#ffdb2d;stroke-width:0.08817264"/>
  </g>
  <g id="cloud-bottom" transform="matrix(1.0037 0 0 1.0037 12.604 7.928)">
    <path id="path2327" d="m31.842 23.646-.526-.232c.75-2.493.503-5.241-.703-7.772-2.075-4.358-6.416-7.066-11.33-7.066-.88 0-1.792.109-2.708.325a13.095 13.095 0 0 0-3.251 1.25 13.82 13.82 0 0 0-1.43.899 13.246 13.246 0 0 0-2.46 2.289A12.461 12.461 0 0 0 8.12 15.25l-.246.444a10.613 10.613 0 0 0-6.945.6 10.066 10.066 0 0 0-3.021 2.064c-.448.444-.86.948-1.23 1.499a9.756 9.756 0 0 0-1.536 3.936l-.062.392c-2.75.41-4.486 1.709-5.466 2.74-1.564 1.65-2.427 3.856-2.427 6.213 0 4.342 3.022 8.737 8.796 8.737 1.666 0 6.781.006 12.447.014l2.673.003c6.815.01 13.77.019 16.088.019 4.868 0 8.691-2.966 9.737-7.554 1.028-4.513-1.064-8.917-5.086-10.712M1.113 26.588a.625.625 0 0 0-.164-.823 11.74 11.74 0 0 0-3.52-1.831c.669-3.701 3.935-6.362 7.861-6.362 2.718 0 5.51 1.407 7.288 3.672.198.25.59.326.87.165a.631.631 0 0 0 .272-.814c-1.018-2.217-2.735-3.873-3.468-4.516 1.856-3.181 5.455-5.303 9.033-5.303 4.011 0 7.56 2.217 9.258 5.785 1.525 3.202 1.127 6.704-1.037 9.139a9.352 9.352 0 0 1-2.77 2.122.63.63 0 0 0-.322.773.664.664 0 0 0 .631.438l.11-.01c3.541-.562 5.34-2.604 5.931-3.275a.048.048 0 0 1 .007-.008c3.379 1.637 4.248 5.34 3.609 8.142-.643 2.818-2.954 5.828-7.51 5.828-2.385 0-9.684-.01-16.687-.02-6.454-.008-12.655-.017-14.521-.017-4.278 0-6.516-3.288-6.516-6.536 0-1.806.649-3.484 1.828-4.725 1.341-1.412 3.283-2.16 5.616-2.16 1.151 0 2.29.208 3.383.615a.69.69 0 0 0 .818-.28" class="contour" style="fill:#808080;stroke-width:1.01798809"/>
    <path id="path2327-1" d="M1.113 26.588a.625.625 0 0 0-.164-.823 11.74 11.74 0 0 0-3.52-1.831c.669-3.701 3.935-6.362 7.861-6.362 2.718 0 5.51 1.407 7.288 3.672.198.25.59.326.87.165a.631.631 0 0 0 .272-.814c-1.018-2.217-2.735-3.873-3.468-4.516 1.856-3.181 5.455-5.303 9.033-5.303 4.011 0 7.56 2.217 9.258 5.785 1.525 3.202 1.127 6.704-1.037 9.139a9.352 9.352 0 0 1-2.77 2.122.63.63 0 0 0-.322.773.664.664 0 0 0 .631.438l.11-.01c3.541-.562 5.34-2.604 5.931-3.275a.048.048 0 0 1 .007-.008c3.379 1.637 4.248 5.34 3.609 8.142-.643 2.818-2.954 5.828-7.51 5.828-2.385 0-9.684-.01-16.687-.02-6.454-.008-12.655-.017-14.521-.017-4.278 0-6.516-3.288-6.516-6.536 0-1.806.649-3.484 1.828-4.725 1.341-1.412 3.283-2.16 5.616-2.16 1.151 0 2.29.208 3.383.615a.69.69 0 0 0 .818-.28" class="inside" style="fill:#b3b3b3;fill-opacity:0.92857139;stroke-width:1.02"/>
  </g>
  <g id="cloud-left">
    <path id="path2327-7" d="m3.932 24.115.415-.183c-.592-1.968-.397-4.138.555-6.136 1.639-3.44 5.066-5.579 8.946-5.579.694 0 1.414.086 2.138.257.883.208 1.746.54 2.566.987.392.214.772.453 1.13.71a10.458 10.458 0 0 1 1.942 1.807c.404.488.753.995 1.037 1.51l.194.35a8.38 8.38 0 0 1 5.483.474 7.947 7.947 0 0 1 2.385 1.63 7.751 7.751 0 0 1 2.184 4.29l.05.31c2.17.324 3.541 1.349 4.314 2.164 1.236 1.302 1.916 3.043 1.916 4.904 0 3.428-2.385 6.898-6.944 6.898-1.315 0-5.354.005-9.827.011l-2.11.002c-5.38.008-10.872.015-12.702.015-3.843 0-6.862-2.341-7.687-5.963-.812-3.564.84-7.04 4.015-8.458m24.26 2.323a.494.494 0 0 1 .13-.65 9.27 9.27 0 0 1 2.78-1.445c-.528-2.922-3.107-5.023-6.207-5.023-2.146 0-4.35 1.11-5.754 2.899a.554.554 0 0 1-.687.13.499.499 0 0 1-.214-.642c.803-1.75 2.159-3.058 2.737-3.566-1.465-2.511-4.306-4.187-7.13-4.187-3.168 0-5.97 1.75-7.31 4.568-1.205 2.528-.89 5.293.819 7.215a7.383 7.383 0 0 0 2.186 1.675c.23.116.337.374.254.61a.524.524 0 0 1-.498.346l-.086-.007c-2.796-.444-4.216-2.056-4.683-2.586l-.006-.006c-2.667 1.292-3.354 4.216-2.849 6.428.508 2.225 2.332 4.601 5.93 4.601 1.882 0 7.645-.008 13.174-.016 5.095-.006 9.991-.013 11.465-.013 3.377 0 5.143-2.596 5.143-5.16 0-1.426-.512-2.751-1.443-3.73-1.058-1.116-2.592-1.705-4.433-1.705-.91 0-1.809.163-2.67.484a.545.545 0 0 1-.647-.22" class="contour" style="fill:#808080;stroke-width:0.8"/>
    <path id="path2327-1-0" d="M28.193 26.438a.494.494 0 0 1 .129-.65 9.27 9.27 0 0 1 2.78-1.445c-.528-2.922-3.107-5.023-6.207-5.023-2.146 0-4.35 1.11-5.754 2.899a.554.554 0 0 1-.687.13.499.499 0 0 1-.214-.642c.803-1.75 2.159-3.058 2.737-3.566-1.465-2.511-4.306-4.187-7.13-4.187-3.168 0-5.97 1.75-7.31 4.568-1.205 2.528-.89 5.292.819 7.215a7.383 7.383 0 0 0 2.186 1.675c.23.116.337.374.254.61a.524.524 0 0 1-.498.346l-.086-.007c-2.796-.444-4.216-2.056-4.683-2.586l-.006-.006c-2.667 1.292-3.354 4.216-2.849 6.428.508 2.225 2.332 4.601 5.93 4.601 1.882 0 7.645-.008 13.174-.016 5.095-.006 9.991-.013 11.465-.013 3.377 0 5.143-2.596 5.143-5.16 0-1.426-.512-2.751-1.443-3.73-1.058-1.116-2.592-1.705-4.433-1.705-.91 0-1.809.163-2.67.484a.545.545 0 0 1-.647-.22" class="inside" style="fill:#b3b3b3;fill-opacity:0.94117647;stroke-width:0.8"/>
  </g>
</svg>
