<svg xmlns="http://www.w3.org/2000/svg" width="50" height="50">
  <defs>
    <style>
      <![CDATA[
#cloud-front-top {
	animation: passing 12s infinite alternate linear;
}
#cloud-front-middle {
	animation: passing 14s infinite alternate-reverse linear;
}
#cloud-front-bottom {
	animation: passing 18s infinite alternate linear;
}
@keyframes passing {
	0% {
		transform: translateX(-10px) scale(0.95);
	}
	25% {
		transform: translateX(-5px) scale(1.05);
	}
	50% {
		transform: translateX(0px) scale(1.00);
	}
	75% {
		transform: translateX(5px) scale(1.05);
	}
	100% {
		transform: translateX(10px) scale(0.95);
	}
}
]]>
    </style>
  </defs>
  <g id="cloud-back-top">
    <path d="m44.654 15.734-.525-.232c.75-2.493.502-5.241-.703-7.772C41.35 3.372 37.01.664 32.096.664c-.88 0-1.793.109-2.709.325a13.095 13.095 0 0 0-3.25 1.25 13.82 13.82 0 0 0-1.43.899 13.246 13.246 0 0 0-2.46 2.289 12.461 12.461 0 0 0-1.315 1.912l-.245.444a10.613 10.613 0 0 0-6.946.6 10.066 10.066 0 0 0-3.02 2.064c-.448.444-.86.948-1.23 1.499a9.756 9.756 0 0 0-1.536 3.936l-.063.392c-2.75.411-4.486 1.709-5.465 2.741C.862 20.664 0 22.87 0 25.227c0 4.342 3.022 8.737 8.796 8.737 1.665 0 6.78.006 12.447.014l2.673.003c6.814.01 13.77.019 16.087.019 4.869 0 8.692-2.966 9.737-7.554 1.028-4.513-1.063-8.917-5.086-10.712m-30.728 2.942a.625.625 0 0 0-.164-.823 11.74 11.74 0 0 0-3.521-1.831c.67-3.701 3.936-6.362 7.862-6.362 2.717 0 5.51 1.407 7.287 3.672.198.251.591.326.87.165a.631.631 0 0 0 .272-.814c-1.017-2.217-2.734-3.873-3.467-4.516 1.856-3.181 5.455-5.303 9.032-5.303 4.012 0 7.56 2.217 9.259 5.785 1.525 3.202 1.127 6.704-1.038 9.139a9.352 9.352 0 0 1-2.769 2.122.63.63 0 0 0-.322.773.664.664 0 0 0 .631.438l.109-.009c3.542-.563 5.34-2.605 5.932-3.276a.048.048 0 0 1 .007-.008c3.378 1.637 4.248 5.341 3.608 8.142-.642 2.818-2.953 5.828-7.51 5.828-2.384 0-9.683-.01-16.686-.02-6.454-.008-12.655-.017-14.522-.017-4.278 0-6.515-3.288-6.515-6.536 0-1.806.649-3.484 1.828-4.725 1.34-1.412 3.283-2.159 5.616-2.159 1.151 0 2.29.207 3.382.614a.69.69 0 0 0 .819-.279" class="contour" style="fill:#666666;stroke-width:1.01798809"/>
    <path d="M13.926 18.676a.625.625 0 0 0-.164-.823 11.74 11.74 0 0 0-3.521-1.831c.67-3.701 3.936-6.362 7.862-6.362 2.717 0 5.51 1.407 7.287 3.672.198.251.591.326.87.165a.631.631 0 0 0 .272-.814c-1.017-2.217-2.734-3.873-3.467-4.516 1.856-3.181 5.455-5.303 9.032-5.303 4.012 0 7.56 2.217 9.259 5.785 1.525 3.202 1.127 6.704-1.038 9.139a9.352 9.352 0 0 1-2.769 2.122.63.63 0 0 0-.322.773.664.664 0 0 0 .631.438l.109-.009c3.542-.563 5.34-2.605 5.932-3.276a.048.048 0 0 1 .007-.008c3.378 1.637 4.248 5.341 3.608 8.142-.642 2.818-2.953 5.828-7.51 5.828-2.384 0-9.683-.01-16.686-.02-6.454-.008-12.655-.017-14.522-.017-4.278 0-6.515-3.288-6.515-6.536 0-1.806.649-3.484 1.828-4.725 1.34-1.412 3.283-2.159 5.616-2.159 1.151 0 2.29.207 3.382.614a.69.69 0 0 0 .819-.279" class="inside" style="fill:#999999;fill-opacity:0.94117647;stroke-width:1.01798809"/>
  </g>
  <g id="cloud-front-top">
    <path d="m11.849 10.754.378-.167c-.54-1.794-.362-3.773.506-5.595 1.495-3.137 4.62-5.087 8.158-5.087.634 0 1.29.078 1.95.234.805.19 1.592.492 2.34.9.358.195.704.413 1.03.647a9.537 9.537 0 0 1 1.772 1.648c.368.445.687.908.946 1.377l.177.32a7.642 7.642 0 0 1 5 .431 7.248 7.248 0 0 1 2.175 1.486 7.068 7.068 0 0 1 1.992 3.913l.044.282c1.98.296 3.23 1.23 3.936 1.974C43.379 14.304 44 15.892 44 17.589c0 3.126-2.176 6.29-6.333 6.29-1.2 0-4.882.004-8.962.01l-1.924.002c-4.907.008-9.915.014-11.583.014-3.506 0-6.258-2.135-7.011-5.439-.74-3.249.766-6.42 3.662-7.712m22.124 2.119a.45.45 0 0 1 .118-.593 8.453 8.453 0 0 1 2.536-1.318c-.482-2.665-2.834-4.58-5.661-4.58-1.957 0-3.967 1.013-5.247 2.643a.505.505 0 0 1-.627.119.455.455 0 0 1-.195-.586c.732-1.596 1.969-2.788 2.496-3.251-1.336-2.29-3.927-3.818-6.503-3.818-2.888 0-5.443 1.596-6.666 4.165-1.098 2.305-.812 4.826.747 6.58a6.733 6.733 0 0 0 1.994 1.527c.21.105.307.34.232.556a.478.478 0 0 1-.455.316l-.078-.007c-2.55-.405-3.845-1.875-4.271-2.358l-.005-.006c-2.433 1.179-3.059 3.845-2.598 5.862.462 2.029 2.126 4.196 5.407 4.196 1.717 0 6.972-.008 12.014-.015 4.647-.006 9.112-.012 10.456-.012 3.08 0 4.69-2.367 4.69-4.706 0-1.3-.466-2.508-1.316-3.401-.965-1.017-2.363-1.555-4.043-1.555-.829 0-1.649.15-2.435.442a.497.497 0 0 1-.59-.2" class="contour" style="fill:#4d4d4d;stroke-width:0.73292214"/>
    <path d="M33.973 12.873a.45.45 0 0 1 .118-.593 8.453 8.453 0 0 1 2.536-1.318c-.482-2.665-2.834-4.58-5.661-4.58-1.957 0-3.967 1.013-5.247 2.643a.505.505 0 0 1-.627.119.455.455 0 0 1-.195-.586c.732-1.596 1.969-2.788 2.496-3.251-1.336-2.29-3.927-3.818-6.503-3.818-2.888 0-5.443 1.596-6.666 4.165-1.098 2.305-.812 4.826.747 6.58a6.733 6.733 0 0 0 1.994 1.527c.21.105.307.34.232.556a.478.478 0 0 1-.455.316l-.078-.007c-2.55-.405-3.845-1.875-4.271-2.358l-.005-.006c-2.433 1.179-3.059 3.845-2.598 5.862.462 2.029 2.126 4.196 5.407 4.196 1.717 0 6.972-.008 12.014-.015 4.647-.006 9.112-.012 10.456-.012 3.08 0 4.69-2.367 4.69-4.706 0-1.3-.466-2.508-1.316-3.401-.965-1.017-2.363-1.555-4.043-1.555-.829 0-1.649.15-2.435.442a.497.497 0 0 1-.59-.2" class="inside" style="fill:#666666;fill-opacity:0.94117647;stroke-width:0.73292214"/>
  </g>
  <g id="cloud-front-middle">
    <path d="m45.923 27.828-.378-.167c.54-1.795.362-3.773-.506-5.595-1.494-3.138-4.62-5.088-8.158-5.088-.634 0-1.29.079-1.95.234a9.429 9.429 0 0 0-2.34.9 9.951 9.951 0 0 0-1.03.648 9.537 9.537 0 0 0-1.771 1.648 8.971 8.971 0 0 0-.946 1.376l-.177.32a7.642 7.642 0 0 0-5 .432 7.248 7.248 0 0 0-2.176 1.486 7.068 7.068 0 0 0-1.991 3.913l-.045.282c-1.98.296-3.23 1.23-3.935 1.973-1.127 1.187-1.748 2.776-1.748 4.472 0 3.126 2.176 6.29 6.334 6.29 1.199 0 4.882.005 8.961.01l1.925.003c4.906.007 9.914.013 11.583.013 3.505 0 6.258-2.135 7.01-5.438.74-3.249-.765-6.42-3.662-7.712M23.8 29.946a.45.45 0 0 0-.118-.592 8.453 8.453 0 0 0-2.535-1.319c.482-2.664 2.834-4.58 5.66-4.58 1.957 0 3.967 1.013 5.247 2.644.143.18.426.234.627.119a.455.455 0 0 0 .196-.587c-.733-1.596-1.97-2.788-2.497-3.25 1.336-2.29 3.928-3.819 6.503-3.819 2.889 0 5.443 1.596 6.666 4.165 1.099 2.305.812 4.827-.746 6.58a6.733 6.733 0 0 1-1.994 1.528.454.454 0 0 0-.232.556.478.478 0 0 0 .454.315l.079-.006c2.55-.405 3.844-1.876 4.27-2.359a.031.031 0 0 1 .006-.005c2.432 1.178 3.058 3.845 2.598 5.861-.463 2.03-2.127 4.196-5.407 4.196-1.717 0-6.972-.007-12.015-.014-4.647-.006-9.112-.013-10.455-.013-3.08 0-4.691-2.367-4.691-4.705 0-1.3.467-2.508 1.316-3.402.965-1.016 2.364-1.554 4.043-1.554.83 0 1.65.149 2.436.442a.497.497 0 0 0 .589-.201" class="contour" style="fill:#4d4d4d;stroke-width:0.73292214"/>
    <path d="M23.799 29.946a.45.45 0 0 0-.118-.592 8.453 8.453 0 0 0-2.535-1.319c.482-2.664 2.834-4.58 5.66-4.58 1.957 0 3.967 1.013 5.247 2.644.143.18.426.234.627.119a.455.455 0 0 0 .196-.587c-.733-1.596-1.97-2.788-2.497-3.25 1.336-2.29 3.928-3.819 6.503-3.819 2.889 0 5.443 1.596 6.666 4.165 1.099 2.305.812 4.827-.746 6.58a6.733 6.733 0 0 1-1.994 1.528.454.454 0 0 0-.232.556.478.478 0 0 0 .454.315l.079-.006c2.55-.405 3.844-1.876 4.27-2.359a.031.031 0 0 1 .006-.005c2.432 1.178 3.058 3.845 2.598 5.861-.463 2.03-2.127 4.196-5.407 4.196-1.717 0-6.972-.007-12.015-.014-4.647-.006-9.112-.013-10.455-.013-3.08 0-4.691-2.367-4.691-4.705 0-1.3.467-2.508 1.316-3.402.965-1.016 2.364-1.554 4.043-1.554.83 0 1.65.149 2.436.442a.497.497 0 0 0 .589-.201" class="inside" style="fill:#666666;fill-opacity:0.94117647;stroke-width:0.73292214"/>
  </g>
  <g id="cloud-front-bottom">
    <path d="m3.849 36.85.378-.167c-.54-1.795-.362-3.774.506-5.596C6.228 27.95 9.353 26 12.891 26c.634 0 1.29.078 1.95.234.805.19 1.592.492 2.34.9.358.195.704.413 1.03.647a9.537 9.537 0 0 1 1.772 1.648c.368.445.687.908.946 1.377l.177.32a7.642 7.642 0 0 1 5 .431 7.248 7.248 0 0 1 2.175 1.486 7.068 7.068 0 0 1 1.992 3.913l.044.282c1.98.296 3.23 1.23 3.936 1.974C35.379 40.399 36 41.987 36 43.684c0 3.126-2.176 6.29-6.333 6.29-1.2 0-4.882.004-8.962.01l-1.924.002c-4.907.008-9.915.014-11.583.014C3.692 50 .94 47.865.187 44.562c-.74-3.25.766-6.42 3.662-7.712m22.124 2.118a.45.45 0 0 1 .118-.593 8.453 8.453 0 0 1 2.536-1.318c-.482-2.665-2.834-4.58-5.661-4.58-1.957 0-3.967 1.013-5.247 2.643a.505.505 0 0 1-.627.119.455.455 0 0 1-.195-.586c.732-1.596 1.969-2.788 2.496-3.251-1.336-2.29-3.927-3.818-6.503-3.818-2.888 0-5.443 1.596-6.666 4.165-1.098 2.305-.812 4.826.747 6.58a6.733 6.733 0 0 0 1.994 1.527c.21.105.307.34.232.557a.478.478 0 0 1-.455.315l-.078-.007c-2.55-.405-3.845-1.875-4.271-2.358a.035.035 0 0 0-.005-.006c-2.433 1.179-3.059 3.845-2.598 5.862.462 2.029 2.126 4.196 5.407 4.196 1.717 0 6.972-.008 12.014-.015 4.647-.006 9.112-.012 10.456-.012 3.08 0 4.69-2.367 4.69-4.706 0-1.3-.466-2.508-1.315-3.401-.966-1.017-2.364-1.555-4.044-1.555-.829 0-1.649.15-2.435.442a.497.497 0 0 1-.59-.2" class="contour" style="fill:#4d4d4d;stroke-width:0.73292214"/>
    <path d="M25.973 38.968a.45.45 0 0 1 .118-.593 8.453 8.453 0 0 1 2.536-1.318c-.482-2.665-2.834-4.58-5.661-4.58-1.957 0-3.967 1.013-5.247 2.643a.505.505 0 0 1-.627.119.455.455 0 0 1-.195-.586c.732-1.596 1.969-2.788 2.496-3.251-1.336-2.29-3.927-3.818-6.503-3.818-2.888 0-5.443 1.596-6.666 4.165-1.098 2.305-.812 4.826.747 6.58a6.733 6.733 0 0 0 1.994 1.527c.21.105.307.34.232.557a.478.478 0 0 1-.455.315l-.078-.007c-2.55-.405-3.845-1.875-4.271-2.358a.035.035 0 0 0-.005-.006c-2.433 1.179-3.059 3.845-2.598 5.862.462 2.029 2.126 4.196 5.407 4.196 1.717 0 6.972-.008 12.014-.015 4.647-.006 9.112-.012 10.456-.012 3.08 0 4.69-2.367 4.69-4.706 0-1.3-.466-2.508-1.315-3.401-.966-1.017-2.364-1.555-4.044-1.555-.829 0-1.649.15-2.435.442a.497.497 0 0 1-.59-.2" class="inside" style="fill:#666666;fill-opacity:0.94117647;stroke-width:0.73292214"/>
  </g>
</svg>
