<svg xmlns="http://www.w3.org/2000/svg" id="Calque_1" width="50" height="50" x="0" y="0" version="1.1">
  <defs id="defs2288">
    <style id="style2286" type="text/css">
      <![CDATA[
.fog:nth-of-type(4n) {
	animation: fog 10s linear infinite -5s;
}
.fog:nth-of-type(4n+1) {
	animation: fog 10s linear infinite -10s;
}
.fog:nth-of-type(4n+2) {
	animation: fog 10s linear infinite -15s;
}
.fog:nth-of-type(4n+3) {
	animation: fog 10s linear infinite;
}
@keyframes fog {
	0% {
		transform: translate(0px,0px);
	}
	33% {
		transform: translate(-1px,1px);
	}
	66% {
		transform: translate(1px,-1px);
	}
	100% {
		transform: translate(0px,0px);
	}
}
#drop-top {
	animation: drop 7s ease infinite alternate -6s;
}
#drop-middle {
	animation: drop 7s ease infinite alternate -4s;
}
#drop-bottom {
	animation: drop 7s ease infinite alternate -2s;
}
@keyframes drop {
	0% {
		fill-opacity: 0.2;
		stroke-opacity: 0.2;
	}
	100% {
		fill-opacity: 0.7;
		stroke-opacity: 0.7;
	}
}
]]>
    </style>
  </defs>
  <path id="path2105-2" d="M23.585 41.842H8.183c-1.503 0-2.718 1.27-2.718 2.836 0 1.569 1.215 2.842 2.718 2.842h15.402c1.504 0 2.721-1.27 2.721-2.842 0-1.563-1.217-2.836-2.72-2.836" class="fog" style="fill:#cbd5d8;fill-opacity:0.86734697;stroke-width:2.54280019"/>
  <path id="path1533-9" d="M8.18 30.33a2.844 2.844 0 0 0-2.852 2.837 2.847 2.847 0 0 0 2.851 2.841c1.577 0 2.851-1.27 2.851-2.841a2.844 2.844 0 0 0-2.85-2.836" class="fog" style="fill:#cbd5d8;fill-opacity:0.86734697;stroke-width:2.60397148"/>
  <path id="path2105-2-5" d="M43.318 30.33H15.916c-1.503 0-2.718 1.27-2.718 2.837 0 1.569 1.215 2.841 2.718 2.841h27.402c1.504 0 2.721-1.27 2.721-2.841 0-1.564-1.217-2.836-2.72-2.836" class="fog" style="fill:#cbd5d8;fill-opacity:0.86734697;stroke-width:2.54280019"/>
  <path id="path2105-2-5-0" d="M44.632 17.83H3.23C1.726 17.83.51 19.1.51 20.668c0 1.569 1.215 2.841 2.719 2.841h41.402c1.504 0 2.721-1.27 2.721-2.841 0-1.564-1.217-2.836-2.721-2.836" class="fog" style="fill:#cbd5d8;fill-opacity:0.86734697;stroke-width:2.54280019"/>
  <path id="path2105-2-4" d="M42.26 41.842h-9.403c-1.504 0-2.718 1.27-2.718 2.836 0 1.569 1.214 2.842 2.718 2.842h9.402c1.504 0 2.721-1.27 2.721-2.842 0-1.563-1.217-2.836-2.72-2.836" class="fog" style="fill:#cbd5d8;fill-opacity:0.86734697;stroke-width:2.54280019"/>
  <path id="path2105-2-5-8" d="M29.496 4.907H8.094c-1.503 0-2.718 1.27-2.718 2.836 0 1.569 1.215 2.842 2.718 2.842h21.402c1.504 0 2.721-1.27 2.721-2.842 0-1.563-1.217-2.836-2.72-2.836" class="fog" style="fill:#cbd5d8;fill-opacity:0.86734697;stroke-width:2.54280019"/>
  <path id="path2105-2-1" d="M43.412 4.907H36.01c-1.504 0-2.719 1.27-2.719 2.836 0 1.569 1.215 2.842 2.719 2.842h7.402c1.503 0 2.72-1.27 2.72-2.842 0-1.563-1.217-2.836-2.72-2.836" class="fog" style="fill:#cbd5d8;fill-opacity:0.86734697;stroke-width:2.54280019"/>
  <path id="drop-top" d="m15.885 16.378-1.124-.569.974-.503c.18-.092.24-.295.134-.452-.106-.158-.338-.21-.518-.117l-1.342.693-2.025-1.023 2.025-1.023 1.343.693c.06.03.126.046.191.046.13 0 .255-.059.326-.163.106-.157.046-.36-.134-.453l-.975-.503 1.125-.568c.181-.091.243-.294.139-.452-.105-.158-.336-.212-.516-.12l-1.125.568-.01-.99c-.002-.183-.174-.33-.382-.328-.208.001-.376.15-.374.333l.014 1.364-2.024 1.023v-2.045l1.357-.671c.182-.09.246-.292.143-.451-.103-.159-.333-.215-.515-.125l-.985.487V9.893c0-.183-.17-.331-.378-.331-.209 0-.378.148-.378.33v1.137l-.985-.487c-.182-.09-.413-.034-.515.125-.103.159-.039.36.143.45l1.357.672v2.045l-2.024-1.023.014-1.364c.002-.182-.166-.332-.375-.333h-.003c-.207 0-.376.146-.378.327l-.01.99-1.125-.568c-.18-.091-.412-.037-.516.121-.104.158-.042.36.138.452l1.125.568-.975.503c-.18.093-.24.296-.133.453.07.105.196.163.325.163a.419.419 0 0 0 .192-.046l1.343-.693 2.024 1.023L8.45 15.43l-1.343-.693c-.18-.093-.411-.04-.517.117-.106.157-.047.36.133.452l.975.503-1.125.568c-.18.092-.242.294-.138.452a.39.39 0 0 0 .328.166c.064 0 .129-.015.188-.045l1.125-.568.01.99c.002.182.17.328.378.328h.003c.209-.002.377-.151.375-.334l-.014-1.364 2.024-1.023v2.046l-1.357.67c-.182.09-.246.292-.143.451a.39.39 0 0 0 .329.169.42.42 0 0 0 .186-.043l.985-.488v1.137c0 .183.17.33.378.33s.378-.147.378-.33v-1.137l.985.488c.059.029.123.043.186.043a.39.39 0 0 0 .329-.169c.103-.158.039-.36-.143-.45l-1.357-.671v-2.046l2.024 1.023-.015 1.364c-.002.183.166.332.375.334h.003c.207 0 .376-.146.378-.328l.01-.99 1.126.568c.06.03.124.045.188.045a.39.39 0 0 0 .328-.166c.104-.158.042-.36-.139-.451z" class="drop" style="fill:#9ddcd9;fill-opacity:1;stroke:#2979db;stroke-width:0.31021401;stroke-miterlimit:4;stroke-dasharray:none;stroke-opacity:1"/>
  <path id="drop-middle" d="m42.58 26.97-1.124-.567.974-.503c.18-.093.24-.296.134-.453-.106-.157-.338-.21-.518-.117l-1.342.693L38.679 25l2.024-1.023 1.343.693c.06.031.127.046.192.046.13 0 .255-.058.326-.163.106-.157.046-.36-.134-.453l-.975-.502 1.125-.569c.181-.091.243-.293.139-.452-.105-.158-.336-.212-.517-.12l-1.124.568-.01-.99c-.002-.183-.174-.33-.382-.328-.208.001-.376.15-.374.333l.014 1.365-2.024 1.022v-2.045l1.357-.671c.181-.09.245-.292.143-.45-.103-.16-.333-.216-.515-.126l-.985.487v-1.136c0-.183-.17-.33-.378-.33-.209 0-.378.147-.378.33v1.136l-.985-.487c-.182-.09-.413-.034-.515.125-.103.16-.04.361.143.45l1.357.672v2.045l-2.025-1.022.015-1.365c.002-.182-.166-.332-.375-.333h-.003c-.207 0-.376.146-.378.327l-.01.99-1.125-.568c-.18-.09-.412-.037-.516.121-.104.159-.042.36.138.452l1.125.569-.975.502c-.18.093-.24.296-.134.453.07.105.197.163.326.163a.419.419 0 0 0 .192-.046l1.343-.693L37.168 25l-2.024 1.023-1.343-.693c-.18-.093-.412-.04-.518.117-.106.157-.046.36.134.453l.975.502-1.125.569c-.18.091-.243.293-.138.451a.39.39 0 0 0 .327.166c.064 0 .13-.015.189-.045l1.125-.568.01.99c.002.182.17.328.378.328h.003c.209-.002.376-.15.374-.333l-.014-1.365 2.025-1.022v2.045l-1.357.671c-.182.09-.246.292-.143.45a.39.39 0 0 0 .329.169.42.42 0 0 0 .186-.043l.985-.487v1.136c0 .183.169.33.378.33.208 0 .378-.147.378-.33v-1.136l.985.487c.059.029.122.043.185.043a.39.39 0 0 0 .33-.168c.102-.16.038-.361-.143-.45l-1.357-.672v-2.045l2.024 1.022-.015 1.364c-.002.183.166.333.375.334h.003c.207 0 .376-.146.378-.327l.01-.99 1.125.567c.06.03.125.045.189.045a.39.39 0 0 0 .328-.166c.104-.158.042-.36-.139-.451z" class="drop" style="fill:#9ddcd9;fill-opacity:1;stroke:#2979db;stroke-width:0.31021401;stroke-miterlimit:4;stroke-dasharray:none;stroke-opacity:1"/>
  <path id="drop-bottom" d="m27.864 41.195-1.125-.568.975-.503c.18-.093.24-.296.134-.453-.107-.157-.338-.21-.518-.117l-1.343.693-2.024-1.023 2.024-1.023 1.343.693c.06.031.126.046.192.046.129 0 .255-.058.326-.163.105-.157.046-.36-.134-.453l-.975-.502 1.125-.569c.18-.091.243-.293.138-.451-.104-.159-.335-.213-.516-.121l-1.125.568-.01-.99c-.002-.183-.173-.33-.381-.328-.209.002-.376.15-.375.333l.014 1.365-2.024 1.022v-2.045l1.357-.671c.182-.09.246-.292.143-.45-.102-.16-.333-.216-.514-.126l-.986.487V34.71c0-.183-.169-.33-.378-.33-.208 0-.378.147-.378.33v1.136l-.985-.487c-.182-.09-.412-.034-.515.125-.102.16-.038.361.143.45l1.357.672v2.045l-2.024-1.022.014-1.365c.002-.182-.166-.332-.374-.333h-.004c-.207 0-.375.146-.377.328l-.01.99-1.125-.568c-.181-.092-.412-.038-.516.12-.105.159-.043.36.138.452l1.125.569-.975.502c-.18.093-.24.296-.134.453.07.105.197.163.326.163a.419.419 0 0 0 .192-.046l1.343-.692 2.024 1.022-2.025 1.023-1.342-.693c-.18-.093-.412-.04-.518.117-.106.157-.046.36.134.453l.975.503-1.125.568c-.18.091-.243.293-.139.451a.39.39 0 0 0 .328.166c.064 0 .13-.014.189-.045l1.124-.568.01.99c.003.182.171.328.378.328h.004c.208-.002.376-.15.374-.333l-.014-1.365 2.024-1.022v2.045l-1.357.671c-.181.09-.245.292-.143.45a.39.39 0 0 0 .33.169.42.42 0 0 0 .185-.043l.985-.487v1.136c0 .183.17.33.378.33.209 0 .378-.147.378-.33v-1.136l.986.487c.058.029.122.043.185.043a.39.39 0 0 0 .33-.168c.102-.16.038-.361-.144-.45l-1.357-.672v-2.045l2.024 1.022-.014 1.365c-.002.182.166.332.374.333h.004c.207 0 .376-.146.378-.327l.01-.99 1.125.568c.06.03.125.044.189.044a.39.39 0 0 0 .327-.166c.105-.158.043-.36-.138-.451z" class="drop" style="fill:#9ddcd9;fill-opacity:1;stroke:#2979db;stroke-width:0.31021401;stroke-miterlimit:4;stroke-dasharray:none;stroke-opacity:1"/>
</svg>
